<?xml version="1.0" encoding="UTF-8" standalone="no"?>
<svg width="100px" height="100px" viewBox="0 0 100 100" version="1.1" xmlns="http://www.w3.org/2000/svg" xmlns:xlink="http://www.w3.org/1999/xlink">
    <!-- Generator: Sketch 3.6.1 (26313) - http://www.bohemiancoding.com/sketch -->
    <title>Artboard 3 Copy 2</title>
    <desc>Created with Sketch.</desc>
    <defs></defs>
    <g id="用户中心" stroke="none" stroke-width="1" fill="none" fill-rule="evenodd">
        <g id="Artboard-3-Copy-2">
            <rect id="Rectangle-65" fill-opacity="0" fill="#FF8091" x="0" y="0" width="100" height="100"></rect>
            <g id="Group">
                <circle id="Oval-190" fill="#FF8091" cx="50" cy="50" r="50"></circle>
                <circle id="Oval-190-Copy" stroke="#FFFFFF" stroke-width="1.33333333" fill="#FF8091" cx="50" cy="50" r="45"></circle>
                <path d="M35.1263205,53.4045907 C34.2598044,52.7074212 33.5765758,51.9112011 33.0608262,51.0657315 C32.4789431,50.1110888 32.1128417,49.0941451 31.9387617,48.0853485 C31.5910865,46.0711099 32.0013141,44.1167761 32.9813022,42.8036632 C34.0374199,41.3889517 35.520252,40.6355891 37.0481799,40.4137018 C37.9437949,40.283349 38.8486231,40.3303143 39.6894442,40.5296774 C40.5176577,40.7266444 41.2901075,41.0721752 41.9355128,41.5427872 C42.8097921,42.1796949 43.4280429,43.0509502 43.5812721,44.0808333 C43.720924,45.021578 43.6491585,45.7835669 43.4319221,46.3840525 C43.2248687,46.9567423 42.8796181,47.3880568 42.4640566,47.6918939 C42.0305537,48.0081911 41.5058891,48.1998865 40.9666775,48.2784815 C40.3838246,48.3628275 39.8004868,48.3105905 39.3083107,48.1371062 C38.8786871,47.9847085 38.5610759,47.7522779 38.3545074,47.4795913 C38.1862462,47.257704 38.0819922,47.000353 38.0432,46.7334173 C38.0039229,46.465523 38.0315623,46.1890025 38.1251485,45.9287762 C38.2352214,45.6254183 38.4340314,45.3469809 38.7220636,45.1337198 C39.3897744,44.6386666 39.5250622,43.702235 39.0241578,43.0423239 C38.5232535,42.3824127 37.5757539,42.2487052 36.9080431,42.7437584 C36.1147425,43.3317838 35.5677724,44.0942519 35.2685875,44.9214172 C35.0091647,45.638837 34.9340048,46.4075352 35.0440776,47.155147 C35.1541505,47.9037172 35.4513958,48.6335971 35.9362984,49.2724218 C36.4895722,50.0018225 37.2755992,50.6018288 38.2895305,50.9602991 C39.2346056,51.2943282 40.3309702,51.3983229 41.4055143,51.2420912 C42.4058683,51.096882 43.4042827,50.7221176 44.2659545,50.0938362 C45.144113,49.4521361 45.8666179,48.5588359 46.288968,47.3914114 C46.6637977,46.354819 46.7976308,45.1097579 46.5803944,43.6471226 C46.3015754,41.7728216 45.2299408,40.2263196 43.7252882,39.1293431 C43.0367265,38.6275806 42.2516693,38.2211866 41.4084237,37.9240588 C41.9549089,36.1690881 42.899984,34.7184338 44.1713985,33.6727358 C45.6653833,32.4439688 47.6466951,31.7490733 49.9999273,31.7490733 C52.3531594,31.7490733 54.3344712,32.4439688 55.828456,33.6727358 C57.1003554,34.7184338 58.0449456,36.1690881 58.5914308,37.9240588 C57.7481853,38.2211866 56.963128,38.6275806 56.2745664,39.1293431 C54.7699137,40.2263196 53.6982791,41.7728216 53.419945,43.6471226 C53.2022238,45.1097579 53.3360569,46.354819 53.7108865,47.3914114 C54.1332367,48.5588359 54.8557415,49.4521361 55.7343849,50.0938362 C56.5955719,50.7221176 57.5939862,51.096882 58.5948251,51.2425704 C59.6693692,51.3983229 60.765249,51.2943282 61.710809,50.9602991 C62.7242553,50.6018288 63.5102824,50.0018225 64.0635562,49.2724218 C64.5484587,48.6331179 64.845704,47.9037172 64.9562618,47.155147 C65.0658498,46.4075352 64.9906899,45.638837 64.731267,44.9214172 C64.4320821,44.0942519 63.885112,43.3317838 63.0918115,42.7437584 C62.4241006,42.2487052 61.476601,42.3824127 60.9756967,43.0423239 C60.4747923,43.702235 60.6105651,44.6386666 61.2782759,45.1337198 C61.5658231,45.3469809 61.765118,45.6254183 61.874706,45.9287762 C61.9682922,46.1890025 61.9959317,46.465523 61.9571395,46.7334173 C61.9178624,47.000353 61.8136083,47.257704 61.6453471,47.4795913 C61.4387786,47.7522779 61.1216524,47.9847085 60.6915438,48.1371062 C60.1993677,48.3105905 59.6160299,48.3633067 59.033177,48.2784815 C58.4939654,48.2003657 57.9697857,48.0081911 57.5362828,47.6918939 C57.1202364,47.3880568 56.7749858,46.9567423 56.5679324,46.3840525 C56.3506961,45.7835669 56.2789305,45.021578 56.4190673,44.0808333 C56.5718116,43.0509502 57.1900624,42.1796949 58.0643417,41.5427872 C58.709747,41.0721752 59.4821968,40.7266444 60.3104104,40.5296774 C61.1517163,40.3303143 62.0560596,40.283349 62.9521595,40.4137018 C64.4800875,40.6355891 65.9629195,41.3889517 67.0185524,42.8036632 C67.9985404,44.1167761 68.408768,46.0711099 68.0610929,48.0853485 C67.8870129,49.0936659 67.5209114,50.1110888 66.9390284,51.0657315 C66.4237269,51.9115863 65.7402116,52.7074553 64.8736636,53.40452 C60.0560589,52.0860011 55.0262515,51.4267417 50.0001212,51.4267417 C44.9739011,51.4267417 39.9440038,52.0860247 35.1263205,53.4045907 Z M31.82627,54.4232174 C31.3001093,53.8475099 30.8476962,53.2399347 30.4651428,52.6122335 C29.6810553,51.3259579 29.1869396,49.9524609 28.951277,48.5895072 C28.4658895,45.7754199 29.0894742,42.9776267 30.5393329,41.0347946 C32.125934,38.9093728 34.3375746,37.7793288 36.609828,37.4496129 C37.2101374,37.3623915 37.8172354,37.3321995 38.4189995,37.3552029 C39.1191987,34.9082122 40.4298904,32.8642608 42.2395467,31.3767051 C44.2795318,29.6984126 46.9203111,28.75 49.9999273,28.75 C53.0800283,28.75 55.7203228,29.6984126 57.7607927,31.3767051 C59.5699642,32.8642608 60.8806558,34.9082122 61.58134,37.3552029 C62.1831041,37.3321995 62.7897172,37.3623915 63.3905114,37.4496129 C65.6627648,37.7793288 67.8739205,38.9093728 69.4605217,41.0347946 C70.9108652,42.9776267 71.533965,45.7754199 71.0480926,48.5895072 C70.8133998,49.9524609 70.3192841,51.3259579 69.5347117,52.6122335 C69.1521849,53.2402718 68.6998318,53.8477838 68.17396,54.4232131 C69.8486011,55.0004815 71.4900889,55.6611577 73.0887086,56.4052418 L73.8811843,55.5499164 C75.0561032,54.5876059 76.56512,54.008686 78.2103944,54.008686 C81.9601459,54.008686 85,57.0130309 85,60.7189807 C85,64.4249305 81.9601459,67.4287961 78.2103944,67.4287961 C74.4611278,67.4287961 71.4212736,64.4249305 71.4212736,60.7189807 C71.4212736,60.1379195 71.4960209,59.5742168 71.6365293,59.0366872 C64.9644998,55.962899 57.4864523,54.425815 50.0001212,54.425815 C42.5138382,54.425815 35.0358388,55.9628793 28.3634556,59.0366295 C28.5039738,59.5741764 28.5787264,60.1378987 28.5787264,60.7189807 C28.5787264,64.4249305 25.5388722,67.4287961 21.7896056,67.4287961 C18.0398541,67.4287961 15,64.4249305 15,60.7189807 C15,57.0130309 18.0398541,54.008686 21.7896056,54.008686 C23.43488,54.008686 24.9438968,54.5876059 26.1188157,55.5499164 L26.9113644,56.4053206 C28.5100336,55.6612063 30.1515741,55.0005052 31.82627,54.4232174 Z M54.7180777,60.0140211 L50.4203863,55.7665321 C50.3044946,55.6524734 50.1522352,55.595444 49.9999758,55.595444 C49.8477164,55.595444 49.6954569,55.6524734 49.5795652,55.7665321 L45.2818739,60.0140211 C45.0505753,60.2426178 45.0505753,60.6164237 45.2818739,60.8450204 L49.5795652,65.0925094 C49.694972,65.2065681 49.8477164,65.2635975 49.9999758,65.2635975 C50.1522352,65.2635975 50.3049795,65.2065681 50.4203863,65.0925094 L54.7180777,60.8450204 C54.9493762,60.6164237 54.9493762,60.2426178 54.7180777,60.0140211 Z M19.0314799,60.4760069 L21.54376,57.9930732 C21.6790478,57.8593657 21.9001634,57.8593657 22.0354512,57.9930732 L24.5472465,60.4760069 C24.6830192,60.6097144 24.6830192,60.8277678 24.5472465,60.9614753 L22.0354512,63.4448881 C21.9001634,63.5781164 21.6790478,63.5781164 21.54376,63.4448881 L19.0314799,60.9614753 C18.8961921,60.8277678 18.8961921,60.6097144 19.0314799,60.4760069 Z M80.9685201,60.4760069 L78.45624,57.9930732 C78.3209522,57.8593657 78.0998366,57.8593657 77.9645488,57.9930732 L75.4527535,60.4760069 C75.3169808,60.6097144 75.3169808,60.8277678 75.4527535,60.9614753 L77.9645488,63.4448881 C78.0998366,63.5781164 78.3209522,63.5781164 78.45624,63.4448881 L80.9685201,60.9614753 C81.1038079,60.8277678 81.1038079,60.6097144 80.9685201,60.4760069 Z M49.9999758,72.5 C42.2541423,72.5 35.8044533,67.0194308 34.4016302,59.7675968 C35.3976201,59.4618428 36.4047627,59.1862807 37.4211185,58.9409107 C38.448627,64.8882581 43.688969,69.4161015 49.9999758,69.4161015 C55.0657528,69.4161015 59.4415135,66.4994572 61.5023494,62.2725754 L59.5312205,61.4228859 L66.3120978,57.8055952 C65.5949269,60.9532324 64.5649939,63.6038994 62.6753286,66.2502533 C60.0185475,69.9710595 56.1592081,72.5 49.9999758,72.5 Z" id="Fill-2" fill="#FFFFFF"></path>
            </g>
        </g>
    </g>
</svg>