<?xml version="1.0" encoding="UTF-8" standalone="no"?>
<svg width="100px" height="100px" viewBox="0 0 100 100" version="1.1" xmlns="http://www.w3.org/2000/svg" xmlns:xlink="http://www.w3.org/1999/xlink">
    <!-- Generator: Sketch 3.8.3 (29802) - http://www.bohemiancoding.com/sketch -->
    <title>ic_caimi_w</title>
    <desc>Created with Sketch.</desc>
    <defs></defs>
    <g id="Page-1" stroke="none" stroke-width="1" fill="none" fill-rule="evenodd">
        <g id="ic_caimi_w">
            <g id="Group-3" transform="translate(15.000000, 14.000000)">
                <g id="Group-2" transform="translate(0.143419, 0.000000)">
                    <rect id="Rectangle-5" fill="#D8D8D8" opacity="0" x="0" y="0" width="70.8242728" height="70.970429"></rect>
                    <g id="Group" transform="translate(0.000000, 2.084756)" fill="#FFFFFF">
                        <path d="M61.9712387,20.5787678 L35.4121364,35.9443164 L35.4121364,25.7006173 L61.9712387,10.3350687 L70.8242728,5.23406914 L70.8242728,46.2638484 L61.9712387,51.4202936 L61.9712387,20.5787678 L61.9712387,20.5787678 Z M17.7060682,25.6810595 L17.7060682,36.0618492 L8.8530341,41.2182945 L8.8530341,20.5737248 L17.7060682,25.6810595 L17.7060682,25.6810595 Z M44.2651705,51.5548827 L44.2651705,61.7886297 L35.4121364,66.945075 L35.4121364,56.6558823 L44.2651705,51.5548827 L44.2651705,51.5548827 Z" id="Combined-Shape"></path>
                        <path d="M44.2651705,51.5792125 L17.7060682,36.0618492 L8.8530341,41.2182945 L35.4121364,56.6802121 L44.2651705,51.5792125 L44.2651705,51.5792125 Z M70.8242728,5.23406917 L61.9712387,0.0347067759 L35.4148955,15.4425407 L8.8530341,0.0347067759 L0,5.23406914 L35.4121364,25.7006173 L70.8242728,5.23406917 L70.8242728,5.23406917 Z" id="Combined-Shape" fill-opacity="0.8"></path>
                        <path d="M8.8530341,10.3350687 L35.4121364,25.7006173 L35.4121364,35.9443164 L8.8530341,20.5787678 L8.8530341,41.1856429 L35.4121364,56.6614741 L35.4121364,66.8982279 L0,46.2638487 L0,5.23406914 L8.8530341,10.3350687 L8.8530341,10.3350687 Z M53.1182046,46.2638484 L61.9712387,51.4202936 L61.9712387,20.574537 L53.1182046,25.7002272 L53.1182046,46.2638484 Z" id="Combined-Shape" fill-opacity="0.3"></path>
                    </g>
                </g>
            </g>
        </g>
    </g>
</svg>