<?xml version="1.0" encoding="UTF-8" standalone="no"?>
<svg width="100px" height="100px" viewBox="0 0 100 100" version="1.1" xmlns="http://www.w3.org/2000/svg" xmlns:xlink="http://www.w3.org/1999/xlink">
    <!-- Generator: Sketch 3.6.1 (26313) - http://www.bohemiancoding.com/sketch -->
    <title>ic_candleline_w</title>
    <desc>Created with Sketch.</desc>
    <defs></defs>
    <g id="Page-1" stroke="none" stroke-width="1" fill="none" fill-rule="evenodd">
        <g id="Artboard-18-Copy-7" fill="#FFFFFF">
            <g id="ic_candleline">
                <rect id="Rectangle-19" opacity="0" x="0" y="0" width="100" height="100"></rect>
                <g id="Group" transform="translate(18.000000, 18.000000)">
                    <path d="M4,11.6363636 L0,11.6363636 L0,41.8909091 L4,41.8909091 L4,52.3636364 L6,52.3636364 L6,41.8909091 L10,41.8909091 L10,11.6363636 L6,11.6363636 L6,0 L4,0 L4,11.6363636 L4,11.6363636 L4,11.6363636 Z M22,31.4181818 L18,31.4181818 L18,55.6218182 L22,55.6218182 L22,64 L24,64 L24,55.6218182 L28,55.6218182 L28,31.4181818 L24,31.4181818 L24,22.1090909 L22,22.1090909 L22,31.4181818 L22,31.4181818 Z M19,32.5 L27,32.5 L27,54.5 L19,54.5 L19,32.5 L19,32.5 Z M58,23.4444444 L54,23.4444444 L54,40.2 L58,40.2 L58,46 L60,46 L60,40.2 L64,40.2 L64,23.4444444 L60,23.4444444 L60,17 L58,17 L58,23.4444444 L58,23.4444444 Z M55,24.1933594 L63,24.1933594 L63,39.4233941 L55,39.4233941 L55,24.1933594 L55,24.1933594 Z M40,8.01616162 L36,8.01616162 L36,28.8581818 L40,28.8581818 L40,36.0727273 L42,36.0727273 L42,28.8581818 L46,28.8581818 L46,8.01616162 L42,8.01616162 L42,0 L40,0 L40,8.01616162 L40,8.01616162 Z" id="Combined-Shape"></path>
                </g>
            </g>
        </g>
    </g>
</svg>