<?xml version="1.0" encoding="UTF-8" standalone="no"?>
<svg width="100px" height="100px" viewBox="0 0 100 100" version="1.1" xmlns="http://www.w3.org/2000/svg" xmlns:xlink="http://www.w3.org/1999/xlink">
    <!-- Generator: Sketch 3.6.1 (26313) - http://www.bohemiancoding.com/sketch -->
    <title>ic_ diagnosis</title>
    <desc>Created with Sketch.</desc>
    <defs></defs>
    <g id="Page-1" stroke="none" stroke-width="1" fill="none" fill-rule="evenodd">
        <g id="Artboard-17-Copy-4">
            <g id="ic_-diagnosis">
                <rect id="Rectangle-19" fill="#FFFFFF" opacity="0" x="0" y="0" width="100" height="100"></rect>
                <g id="Group" transform="translate(18.000000, 26.000000)">
                    <path d="M2,4.00989318 L2,4.00989318 L2,43.9901068 C2,45.1015704 2.89718546,46 4.00348663,46 L59.9965134,46 C61.1005864,46 62,45.0996061 62,43.9901068 L62,4.00989318 C62,2.89842955 61.1028145,2 59.9965134,2 L4.00348663,2 C2.89941359,2 2,2.9003939 2,4.00989318 L2,4.00989318 Z M0,4.00989318 C0,1.79529033 1.79537646,0 4.00348663,0 L59.9965134,0 C62.207578,0 64,1.79405245 64,4.00989318 L64,43.9901068 C64,46.2047097 62.2046235,48 59.9965134,48 L4.00348663,48 C1.79242202,48 0,46.2059475 0,43.9901068 L0,4.00989318 L0,4.00989318 Z" id="Rectangle-4858" fill="#97A3B1"></path>
                    <path d="M53.5,30.5 C56.2614237,30.5 58.5,28.2614237 58.5,25.5 C58.5,22.7385763 56.2614237,20.5 53.5,20.5 C50.7385763,20.5 48.5,22.7385763 48.5,25.5 C48.5,28.2614237 50.7385763,30.5 53.5,30.5 L53.5,30.5 Z M53.5,28.5 C51.8431458,28.5 50.5,27.1568542 50.5,25.5 C50.5,23.8431458 51.8431458,22.5 53.5,22.5 C55.1568542,22.5 56.5,23.8431458 56.5,25.5 C56.5,27.1568542 55.1568542,28.5 53.5,28.5 L53.5,28.5 Z" id="Oval-351" fill="#97A3B1"></path>
                    <path d="M6.89818036,25.4522839 L14.8479522,25.4522839 L17.6175935,21.9679053 L19.9431403,28.0769547 L28.3615321,11.1569593 L32.431896,36.71958 L40.908098,25.4522839 L49.1605045,25.4522839" id="Path-579" stroke="#97A3B1" stroke-width="2"></path>
                </g>
            </g>
        </g>
    </g>
</svg>