<?xml version="1.0" encoding="UTF-8" standalone="no"?>
<svg width="100px" height="100px" viewBox="0 0 100 100" version="1.1" xmlns="http://www.w3.org/2000/svg" xmlns:xlink="http://www.w3.org/1999/xlink">
    <!-- Generator: Sketch 3.6.1 (26313) - http://www.bohemiancoding.com/sketch -->
    <title>ic_heatmap_w</title>
    <desc>Created with Sketch.</desc>
    <defs></defs>
    <g id="Page-1" stroke="none" stroke-width="1" fill="none" fill-rule="evenodd">
        <g id="Artboard-18-Copy-8" fill="#FFFFFF">
            <g id="ic_heatmap">
                <rect id="Rectangle-19" opacity="0" x="0" y="0" width="100" height="100"></rect>
                <g id="tool" transform="translate(24.000000, 18.000000)">
                    <g id="Capa_1">
                        <path d="M36.3094066,62.0343338 C40.4771587,60.4257302 47.6541011,56.0999569 44.913043,45.7740404 C43.0236539,38.607652 37.4912248,35.3931915 33.5583163,30.4930694 C29.6269278,25.6002717 28.6051681,24.204989 29.703385,20.4434934 C24.5281614,24.7236423 23.6549079,28.0119564 24.892815,33.1983372 C26.130722,38.3920423 24.7458287,38.9749361 22.9271207,39.4163789 C21.1055247,39.8488189 20.2351593,37.9493788 20.4511546,36.194594 C17.613575,38.0261316 8.8009354,42.6317549 11.6400351,52.7145956 C13.7521076,58.1976113 18.7029757,61.7796611 24.6015785,62.8790719 C25.5021923,63.0034328 26.5023677,63.0643162 27.5039111,63.090409 C25.216884,63.130998 22.6675007,63.075913 20.5043555,62.7663079 C11.8604385,61.1633502 4.60491084,55.9118134 1.50938322,47.8774932 C-2.65046478,33.0927449 10.2586378,26.3424694 14.4227419,23.6668041 C14.1014089,26.2390134 15.3811166,29.0210339 18.0516457,28.3780197 C20.7206548,27.7334797 22.746846,26.8821802 20.932546,19.2731282 C19.1196141,11.6642289 20.4006899,6.84375883 27.9767904,0.575820236 C26.3742298,6.08996433 27.8671967,8.12841387 33.6317334,15.310519 C39.3949021,22.4862154 47.5042268,27.1974311 50.2784215,37.696232 C54.6147442,54.0081009 42.0322947,60.1364196 36.3094066,62.0343338 L36.3094066,62.0343338 L36.3094066,62.0343338 Z" id="Shape"></path>
                    </g>
                </g>
            </g>
        </g>
    </g>
</svg>