<?xml version="1.0" encoding="UTF-8" standalone="no"?>
<svg width="100px" height="100px" viewBox="0 0 100 100" version="1.1" xmlns="http://www.w3.org/2000/svg" xmlns:xlink="http://www.w3.org/1999/xlink">
    <!-- Generator: Sketch 3.6.1 (26313) - http://www.bohemiancoding.com/sketch -->
    <title>ic_keygenius_w</title>
    <desc>Created with Sketch.</desc>
    <defs></defs>
    <g id="Page-1" stroke="none" stroke-width="1" fill="none" fill-rule="evenodd">
        <g id="Artboard-18-Copy-14" fill="#FFFFFF">
            <path d="M75.8925249,27 L24.0939346,27 C20.7422413,27 18,29.7593804 18,33.1320217 L18,66.8582145 C18,70.2308558 20.7422414,72.9902361 24.0939346,72.9902361 L75.8925249,72.9902361 C79.2442181,72.9902361 81.9864594,70.2308558 81.9864594,66.8582145 L81.9864594,33.1320217 C81.9864594,29.7593804 79.2442181,27 75.8925249,27 Z M78.9394921,66.8582146 C78.9394921,68.5487644 77.5725744,69.9242254 75.8925249,69.9242254 L24.0939346,69.9242254 C22.4138851,69.9242254 21.0469673,68.5487644 21.0469673,66.8582146 L21.0469673,33.1320217 C21.0469673,31.4413248 22.4138851,30.0660109 24.0939346,30.0660109 L75.8925249,30.0660109 C77.5725744,30.0660109 78.9394921,31.4413249 78.9394921,33.1320217 L78.9394921,66.8582146 Z M28.6643855,37.731038 L34.7583201,37.731038 L34.7583201,43.8630596 L28.6643855,43.8630596 L28.6643855,37.731038 Z M37.8052874,37.731038 L43.899222,37.731038 L43.899222,43.8630596 L37.8052874,43.8630596 L37.8052874,37.731038 Z M46.9462624,37.731038 L53.040197,37.731038 L53.040197,43.8630596 L46.9462624,43.8630596 L46.9462624,37.731038 Z M56.0871643,37.731038 L62.1810989,37.731038 L62.1810989,43.8630596 L56.0871643,43.8630596 L56.0871643,37.731038 Z M65.2280662,37.731038 L71.3220008,37.731038 L71.3220008,43.8630596 L65.2280662,43.8630596 L65.2280662,37.731038 Z M28.6643855,46.9291441 L34.7583201,46.9291441 L34.7583201,53.0611657 L28.6643855,53.0611657 L28.6643855,46.9291441 Z M28.6643855,59.1931875 L71.3220008,59.1931875 L71.3220008,62.2591983 L28.6643855,62.2591983 L28.6643855,59.1931875 L28.6643855,59.1931875 Z M37.8052874,46.9291441 L43.899222,46.9291441 L43.899222,53.0611657 L37.8052874,53.0611657 L37.8052874,46.9291441 Z M46.9462624,46.9291441 L53.040197,46.9291441 L53.040197,53.0611657 L46.9462624,53.0611657 L46.9462624,46.9291441 Z M56.0871643,46.9291441 L62.1810989,46.9291441 L62.1810989,53.0611657 L56.0871643,53.0611657 L56.0871643,46.9291441 Z M65.2280662,46.9291441 L71.3220008,46.9291441 L71.3220008,53.0611657 L65.2280662,53.0611657 L65.2280662,46.9291441 Z" id="Combined-Shape"></path>
        </g>
    </g>
</svg>