<?xml version="1.0" encoding="UTF-8" standalone="no"?>
<svg width="100px" height="100px" viewBox="0 0 100 100" version="1.1" xmlns="http://www.w3.org/2000/svg" xmlns:xlink="http://www.w3.org/1999/xlink">
    <!-- Generator: Sketch 3.6.1 (26313) - http://www.bohemiancoding.com/sketch -->
    <title>ic_keygenius</title>
    <desc>Created with Sketch.</desc>
    <defs></defs>
    <g id="Page-1" stroke="none" stroke-width="1" fill="none" fill-rule="evenodd">
        <g id="Artboard-18-Copy-12">
            <rect id="Rectangle-34" fill="#FFFFFF" opacity="0" x="0" y="0" width="100" height="100"></rect>
            <path d="M77.8992951,27.0048451 L26.1007049,27.0048451 C22.7490116,27.0048451 20.0067703,29.7642255 20.0067703,33.1368668 L20.0067703,66.8630596 C20.0067703,70.2357009 22.7490116,72.9950812 26.1007049,72.9950812 L77.8992951,72.9950812 C81.2509884,72.9950812 83.9932297,70.2357009 83.9932297,66.8630596 L83.9932297,33.1368668 C83.9932297,29.7642255 81.2509884,27.0048451 77.8992951,27.0048451 Z M80.9462624,66.8630596 C80.9462624,68.5536095 79.5793446,69.9290705 77.8992951,69.9290705 L26.1007049,69.9290705 C24.4206554,69.9290705 23.0537376,68.5536095 23.0537376,66.8630596 L23.0537376,33.1368668 C23.0537376,31.4461699 24.4206554,30.070856 26.1007049,30.070856 L77.8992951,30.070856 C79.5793446,30.070856 80.9462624,31.44617 80.9462624,33.1368668 L80.9462624,66.8630596 Z M30.6711558,37.7358831 L36.7650904,37.7358831 L36.7650904,43.8679047 L30.6711558,43.8679047 L30.6711558,37.7358831 Z M39.8120577,37.7358831 L45.9059923,37.7358831 L45.9059923,43.8679047 L39.8120577,43.8679047 L39.8120577,37.7358831 Z M48.9530327,37.7358831 L55.0469673,37.7358831 L55.0469673,43.8679047 L48.9530327,43.8679047 L48.9530327,37.7358831 Z M58.0939346,37.7358831 L64.1878691,37.7358831 L64.1878691,43.8679047 L58.0939346,43.8679047 L58.0939346,37.7358831 Z M67.2348365,37.7358831 L73.3287711,37.7358831 L73.3287711,43.8679047 L67.2348365,43.8679047 L67.2348365,37.7358831 Z M30.6711558,46.9339892 L36.7650904,46.9339892 L36.7650904,53.0660108 L30.6711558,53.0660108 L30.6711558,46.9339892 Z M30.6711558,59.1980326 L73.3287711,59.1980326 L73.3287711,62.2640434 L30.6711558,62.2640434 L30.6711558,59.1980326 L30.6711558,59.1980326 Z M39.8120577,46.9339892 L45.9059923,46.9339892 L45.9059923,53.0660108 L39.8120577,53.0660108 L39.8120577,46.9339892 Z M48.9530327,46.9339892 L55.0469673,46.9339892 L55.0469673,53.0660108 L48.9530327,53.0660108 L48.9530327,46.9339892 Z M58.0939346,46.9339892 L64.1878691,46.9339892 L64.1878691,53.0660108 L58.0939346,53.0660108 L58.0939346,46.9339892 Z M67.2348365,46.9339892 L73.3287711,46.9339892 L73.3287711,53.0660108 L67.2348365,53.0660108 L67.2348365,46.9339892 Z" id="Combined-Shape" fill="#97A3B1"></path>
        </g>
    </g>
</svg>