<?xml version="1.0" encoding="UTF-8" standalone="no"?>
<svg width="100px" height="100px" viewBox="0 0 100 100" version="1.1" xmlns="http://www.w3.org/2000/svg" xmlns:xlink="http://www.w3.org/1999/xlink">
    <!-- Generator: Sketch 3.6.1 (26313) - http://www.bohemiancoding.com/sketch -->
    <title>ic_multi_platform</title>
    <desc>Created with Sketch.</desc>
    <defs></defs>
    <g id="Page-1" stroke="none" stroke-width="1" fill="none" fill-rule="evenodd">
        <g id="Artboard-17-Copy-5">
            <g id="ic_multi_platform">
                <rect id="Rectangle-19" fill="#FFFFFF" opacity="0" x="0" y="0" width="100" height="100"></rect>
                <g id="Group-2" transform="translate(18.000000, 24.000000)" fill="#97A3B1">
                    <g id="Group">
                        <path d="M53.1320755,8.70697674 L53.1320755,4.82662102 C53.1320755,2.16752255 50.9674235,0 48.3051573,0 L4.82691819,0 C2.16010498,0 -1.75859327e-12,2.15869425 -1.75859327e-12,4.82662102 L-1.75859327e-12,33.8710534 C-1.75859327e-12,36.5301519 2.16465193,38.6976744 4.82691819,38.6976744 L19.1784757,38.6976744 L16.8595077,42.2767635 L37.4093234,42.2767635 L35.3304369,38.6976744 L38.4,38.6976744 L38.4,31.4524487 L2.41509434,31.4524487 L2.41509434,4.82662102 C2.41509434,3.4967103 3.49167073,2.41860465 4.82691819,2.41860465 L48.3051573,2.41860465 C49.6371708,2.41860465 50.7169811,3.50685281 50.7169811,4.82662102 L50.7169811,8.70697674 L53.1320755,8.70697674 L53.1320755,8.70697674 Z" id="Combined-Shape"></path>
                        <path d="M40.8150943,13.532071 C40.8150943,12.2030035 41.8909288,11.1255814 43.2270755,11.1255814 L61.3465094,11.1255814 C62.6786098,11.1255814 63.7584906,12.2136934 63.7584906,13.532071 L63.7584906,48.6260685 C63.7584906,49.955136 62.6826561,51.0325581 61.3465094,51.0325581 L43.2270755,51.0325581 C41.8949751,51.0325581 40.8150943,49.9444461 40.8150943,48.6260685 L40.8150943,13.532071 Z M42.0226415,15.9627907 L62.5509434,15.9627907 L62.5509434,44.9860465 L42.0226415,44.9860465 L42.0226415,15.9627907 Z M52.2867925,49.8232558 C53.2871573,49.8232558 54.0981132,49.0111212 54.0981132,48.0093023 C54.0981132,47.0074835 53.2871573,46.1953488 52.2867925,46.1953488 C51.2864276,46.1953488 50.4754717,47.0074835 50.4754717,48.0093023 C50.4754717,49.0111212 51.2864276,49.8232558 52.2867925,49.8232558 Z" id="Combined-Shape"></path>
                    </g>
                    <g id="Group" transform="translate(8.000000, 10.000000)">
                        <path d="M2.1875,15.6923077 C3.22303391,15.6923077 4.0625,14.8657565 4.0625,13.8461538 C4.0625,12.8265512 3.22303391,12 2.1875,12 C1.15196609,12 0.3125,12.8265512 0.3125,13.8461538 C0.3125,14.8657565 1.15196609,15.6923077 2.1875,15.6923077 L2.1875,15.6923077 Z M2.1875,15.0769231 C1.49714406,15.0769231 0.9375,14.5258889 0.9375,13.8461538 C0.9375,13.1664188 1.49714406,12.6153846 2.1875,12.6153846 C2.87785594,12.6153846 3.4375,13.1664188 3.4375,13.8461538 C3.4375,14.5258889 2.87785594,15.0769231 2.1875,15.0769231 L2.1875,15.0769231 Z" id="Oval-351"></path>
                        <path d="M10.3125,8.92307692 C11.3480339,8.92307692 12.1875,8.09652569 12.1875,7.07692308 C12.1875,6.05732046 11.3480339,5.23076923 10.3125,5.23076923 C9.27696609,5.23076923 8.4375,6.05732046 8.4375,7.07692308 C8.4375,8.09652569 9.27696609,8.92307692 10.3125,8.92307692 L10.3125,8.92307692 Z M10.3125,8.30769231 C9.62214406,8.30769231 9.0625,7.75665815 9.0625,7.07692308 C9.0625,6.397188 9.62214406,5.84615385 10.3125,5.84615385 C11.0028559,5.84615385 11.5625,6.397188 11.5625,7.07692308 C11.5625,7.75665815 11.0028559,8.30769231 10.3125,8.30769231 L10.3125,8.30769231 Z" id="Oval-351-Copy"></path>
                        <path d="M20.3125,13.8461538 C21.3480339,13.8461538 22.1875,13.0196026 22.1875,12 C22.1875,10.9803974 21.3480339,10.1538462 20.3125,10.1538462 C19.2769661,10.1538462 18.4375,10.9803974 18.4375,12 C18.4375,13.0196026 19.2769661,13.8461538 20.3125,13.8461538 L20.3125,13.8461538 Z M20.3125,13.2307692 C19.6221441,13.2307692 19.0625,12.6797351 19.0625,12 C19.0625,11.3202649 19.6221441,10.7692308 20.3125,10.7692308 C21.0028559,10.7692308 21.5625,11.3202649 21.5625,12 C21.5625,12.6797351 21.0028559,13.2307692 20.3125,13.2307692 L20.3125,13.2307692 Z" id="Oval-351-Copy-2"></path>
                        <path d="M27.8125,4 C28.8480339,4 29.6875,3.17344877 29.6875,2.15384615 C29.6875,1.13424354 28.8480339,0.307692308 27.8125,0.307692308 C26.7769661,0.307692308 25.9375,1.13424354 25.9375,2.15384615 C25.9375,3.17344877 26.7769661,4 27.8125,4 L27.8125,4 Z M27.8125,3.38461538 C27.1221441,3.38461538 26.5625,2.83358123 26.5625,2.15384615 C26.5625,1.47411108 27.1221441,0.923076923 27.8125,0.923076923 C28.5028559,0.923076923 29.0625,1.47411108 29.0625,2.15384615 C29.0625,2.83358123 28.5028559,3.38461538 27.8125,3.38461538 L27.8125,3.38461538 Z" id="Oval-351-Copy-3"></path>
                        <path d="M3.75058291,13.0152763 L9.47690127,8.41631794 L9.08185524,7.93945129 L3.35553688,12.5384096 L3.75058291,13.0152763 L3.75058291,13.0152763 Z" id="Path-532"></path>
                        <path d="M11.7311168,7.78838513 L18.858192,11.5269669 L19.1520619,10.9838504 L12.0249867,7.24526872 L11.7311168,7.78838513 L11.7311168,7.78838513 Z" id="Path-533"></path>
                        <path d="M26.8120596,3.23348822 L21.2537914,10.6573664 L21.7568694,11.0225214 L27.3151376,3.59864319 L26.8120596,3.23348822 L26.8120596,3.23348822 Z" id="Path-534"></path>
                    </g>
                    <g id="Group-Copy" transform="translate(43.000000, 26.000000)">
                        <path d="M1.38541667,9.80769231 C2.04125481,9.80769231 2.57291667,9.29109779 2.57291667,8.65384615 C2.57291667,8.01659452 2.04125481,7.5 1.38541667,7.5 C0.729578526,7.5 0.197916667,8.01659452 0.197916667,8.65384615 C0.197916667,9.29109779 0.729578526,9.80769231 1.38541667,9.80769231 L1.38541667,9.80769231 Z M1.38541667,9.42307692 C0.94819124,9.42307692 0.59375,9.07868058 0.59375,8.65384615 C0.59375,8.22901173 0.94819124,7.88461538 1.38541667,7.88461538 C1.82264209,7.88461538 2.17708333,8.22901173 2.17708333,8.65384615 C2.17708333,9.07868058 1.82264209,9.42307692 1.38541667,9.42307692 L1.38541667,9.42307692 Z" id="Oval-351"></path>
                        <path d="M6.53125,5.57692308 C7.18708814,5.57692308 7.71875,5.06032856 7.71875,4.42307692 C7.71875,3.78582529 7.18708814,3.26923077 6.53125,3.26923077 C5.87541186,3.26923077 5.34375,3.78582529 5.34375,4.42307692 C5.34375,5.06032856 5.87541186,5.57692308 6.53125,5.57692308 L6.53125,5.57692308 Z M6.53125,5.19230769 C6.09402457,5.19230769 5.73958333,4.84791135 5.73958333,4.42307692 C5.73958333,3.9982425 6.09402457,3.65384615 6.53125,3.65384615 C6.96847543,3.65384615 7.32291667,3.9982425 7.32291667,4.42307692 C7.32291667,4.84791135 6.96847543,5.19230769 6.53125,5.19230769 L6.53125,5.19230769 Z" id="Oval-351-Copy"></path>
                        <path d="M12.8645833,8.65384615 C13.5204215,8.65384615 14.0520833,8.13725163 14.0520833,7.5 C14.0520833,6.86274837 13.5204215,6.34615385 12.8645833,6.34615385 C12.2087452,6.34615385 11.6770833,6.86274837 11.6770833,7.5 C11.6770833,8.13725163 12.2087452,8.65384615 12.8645833,8.65384615 L12.8645833,8.65384615 Z M12.8645833,8.26923077 C12.4273579,8.26923077 12.0729167,7.92483442 12.0729167,7.5 C12.0729167,7.07516558 12.4273579,6.73076923 12.8645833,6.73076923 C13.3018088,6.73076923 13.65625,7.07516558 13.65625,7.5 C13.65625,7.92483442 13.3018088,8.26923077 12.8645833,8.26923077 L12.8645833,8.26923077 Z" id="Oval-351-Copy-2"></path>
                        <path d="M17.6145833,2.5 C18.2704215,2.5 18.8020833,1.98340548 18.8020833,1.34615385 C18.8020833,0.708902212 18.2704215,0.192307692 17.6145833,0.192307692 C16.9587452,0.192307692 16.4270833,0.708902212 16.4270833,1.34615385 C16.4270833,1.98340548 16.9587452,2.5 17.6145833,2.5 L17.6145833,2.5 Z M17.6145833,2.11538462 C17.1773579,2.11538462 16.8229167,1.77098827 16.8229167,1.34615385 C16.8229167,0.921319423 17.1773579,0.576923077 17.6145833,0.576923077 C18.0518088,0.576923077 18.40625,0.921319423 18.40625,1.34615385 C18.40625,1.77098827 18.0518088,2.11538462 17.6145833,2.11538462 L17.6145833,2.11538462 Z" id="Oval-351-Copy-3"></path>
                        <path d="M2.37536918,8.13454767 L6.00203747,5.26019871 L5.75184165,4.96215705 L2.12517336,7.83650601 L2.37536918,8.13454767 L2.37536918,8.13454767 Z" id="Path-532"></path>
                        <path d="M7.42970729,4.86774071 L11.9435216,7.20435429 L12.1296392,6.86490653 L7.61582494,4.52829295 L7.42970729,4.86774071 L7.42970729,4.86774071 Z" id="Path-533"></path>
                        <path d="M16.9809711,2.02093014 L13.4607346,6.66085401 L13.7793506,6.88907587 L17.2995872,2.249152 L16.9809711,2.02093014 L16.9809711,2.02093014 Z" id="Path-534"></path>
                    </g>
                </g>
            </g>
        </g>
    </g>
</svg>