<?xml version="1.0" encoding="UTF-8" standalone="no"?>
<svg width="28px" height="76px" viewBox="0 0 28 76" version="1.1" xmlns="http://www.w3.org/2000/svg" xmlns:xlink="http://www.w3.org/1999/xlink">
    <!-- Generator: Sketch 3.6.1 (26313) - http://www.bohemiancoding.com/sketch -->
    <title>ic_roket</title>
    <desc>Created with Sketch.</desc>
    <defs>
        <path id="path-1" d="M15.0721154,8.12937063 C15.0721154,18.7019546 7.66826923,27.2727273 7.66826923,27.2727273 C7.66826923,27.2727273 0.264423077,18.7019546 0.264423077,8.12937063 C0.264423077,3.86083165 0.804748613,1.62841851 1.71820197,0.48379985 C3.10269236,1.13057046 5.16125848,1.78581749 7.81936813,1.78581749 C10.3377306,1.78581749 12.3179331,1.19765714 13.6965915,0.58578345 C14.5625684,1.75914836 15.0721154,3.9841885 15.0721154,8.12937063 Z"></path>
        <path id="path-3" d="M7.66826923,27.2727273 C7.66826923,27.2727273 2.19154753,18.7019546 1.10210605,8.12937063 C0.662258664,3.86083165 0.960301598,1.62841851 1.75826585,0.48379985 C3.1745311,1.13057046 5.22356861,1.78581749 7.81561267,1.78581749 C10.2713829,1.78581749 12.2404299,1.19765714 13.6474443,0.58578345 C14.393774,1.75914836 14.6615686,3.9841885 14.2344324,8.12937063 C13.1449909,18.7019546 7.66826923,27.2727273 7.66826923,27.2727273 Z"></path>
    </defs>
    <g id="Page-1" stroke="none" stroke-width="1" fill="none" fill-rule="evenodd">
        <g id="Artboard-3" transform="translate(-36.000000, -12.000000)">
            <g id="Oval-7-+-Mask-+-Oval-7-Copy-+-Oval-6-+-Oval-7-Copy">
                <g id="Group" transform="translate(36.000000, 12.000000)">
                    <g id="ic_roket" transform="translate(0.250000, 0.500000)">
                        <g id="Mask-+-Oval-7-Copy" transform="translate(6.346154, 47.727273)">
                            <mask id="mask-2" fill="white">
                                <use xlink:href="#path-1"></use>
                            </mask>
                            <use id="Mask" fill="#FFFFFF" opacity="0.2" xlink:href="#path-1"></use>
                            <mask id="mask-4" fill="white">
                                <use xlink:href="#path-3"></use>
                            </mask>
                            <use id="Mask-Copy" fill="#FFFFFF" opacity="0.2" xlink:href="#path-3"></use>
                            <path d="M11.0592005,-3.08554522 C11.5463125,-1.91218031 11.8329327,0.312859828 11.8329327,4.45804196 C11.8329327,15.0306259 7.66826923,23.6013986 7.66826923,23.6013986 C7.66826923,23.6013986 3.50360577,15.0306259 3.50360577,4.45804196 C3.50360577,0.189502983 3.80753888,-2.04291016 4.3213564,-3.18752882 C5.10013224,-2.54075821 6.25807568,-1.88551118 7.75326236,-1.88551118 C9.16984125,-1.88551118 10.2837051,-2.47367154 11.0592005,-3.08554522 L11.0592005,-3.08554522 L11.0592005,-3.08554522 Z" id="Oval-7-Copy" fill="#FFFFFF" opacity="0.3" mask="url(#mask-4)"></path>
                        </g>
                        <g id="Oval-6-+-Oval-7-Copy" transform="translate(0.264423, 0.000000)" fill="#FFFFFF">
                            <path d="M22.1558001,36.6486282 C23.0079816,33.9624917 23.4958791,30.3860354 23.4958791,25.6949662 C23.4958791,11.5040282 13.5233516,0 13.5233516,0 C13.5233516,0 3.55082418,11.5040282 3.55082418,25.6949662 C3.55082418,30.2671658 4.01430876,33.7805244 4.82682521,36.442713 L4.82682521,36.442713 L0.226648352,40.4207363 L0.226648352,54.5454545 L7.11633224,48.5875699 C8.49524421,49.2782384 10.66191,50.0375657 13.5233516,50.0375657 C16.2547378,50.0375657 18.3530695,49.3456942 19.7374789,48.6820924 L26.5178571,54.5454545 L26.5178571,40.4207363 L22.1558001,36.6486282 L22.1558001,36.6486282 Z M13.5233516,19.6844478 C14.8585455,19.6844478 15.9409341,18.6080475 15.9409341,17.2802404 C15.9409341,15.9524334 14.8585455,14.8760331 13.5233516,14.8760331 C12.1881577,14.8760331 11.1057692,15.9524334 11.1057692,17.2802404 C11.1057692,18.6080475 12.1881577,19.6844478 13.5233516,19.6844478 L13.5233516,19.6844478 L13.5233516,19.6844478 Z" id="Oval-7"></path>
                        </g>
                    </g>
                </g>
            </g>
        </g>
    </g>
</svg>