<?xml version="1.0" encoding="UTF-8" standalone="no"?>
<svg width="100px" height="100px" viewBox="0 0 100 100" version="1.1" xmlns="http://www.w3.org/2000/svg" xmlns:xlink="http://www.w3.org/1999/xlink">
    <!-- Generator: Sketch 3.6.1 (26313) - http://www.bohemiancoding.com/sketch -->
    <title>ic_shareplatform_w</title>
    <desc>Created with Sketch.</desc>
    <defs></defs>
    <g id="Page-1" stroke="none" stroke-width="1" fill="none" fill-rule="evenodd">
        <g id="Artboard-18-Copy-11" fill="#FFFFFF">
            <g id="ic_shareplatform">
                <rect id="Rectangle-19" opacity="0" x="0" y="0" width="100" height="100"></rect>
                <path d="M22.0524564,57.3284077 C21.9267145,56.2565699 21.862069,55.1662158 21.862069,54.0608696 C21.862069,42.5136055 28.9171235,32.6024956 38.9807257,28.3454573 L38.9807257,28.3454573 C39.041309,29.4983496 39.2813777,30.6040602 39.6737108,31.6355604 C31.1167365,35.5266803 25.1724138,44.104494 25.1724138,54.0608696 C25.1724138,54.8358649 25.20843,55.6025075 25.2788911,56.3592374 C24.1381697,56.5183244 23.0534146,56.8505942 22.0524567,57.3284123 L22.0524564,57.3284077 L22.0524564,57.3284077 Z M32.9759473,76.3081501 C37.7026688,79.8796959 43.6019608,82 50,82 C56.3980392,82 62.2973312,79.8796959 67.0240527,76.3081501 L67.0240527,76.3081501 C66.0857867,75.6818698 65.2496922,74.9162974 64.5458163,74.0412676 C60.4580351,76.9804007 55.4327975,78.7130435 50,78.7130435 C44.5672025,78.7130435 39.5419649,76.9804007 35.4541837,74.0412676 C34.7503078,74.9162974 33.9142133,75.6818698 32.9759473,76.3081501 L32.9759473,76.3081501 L32.9759473,76.3081501 Z M61.0192743,28.3454573 C71.0828765,32.6024956 78.137931,42.5136055 78.137931,54.0608696 C78.137931,55.1662158 78.0732855,56.2565699 77.9475436,57.3284077 C76.9465854,56.8505942 75.8618303,56.5183244 74.7211089,56.3592374 C74.79157,55.6025075 74.8275862,54.8358649 74.8275862,54.0608696 C74.8275862,44.104494 68.8832635,35.5266803 60.3262892,31.6355604 C60.7186223,30.6040602 60.958691,29.4983496 61.0192743,28.3454573 L61.0192743,28.3454573 L61.0192743,28.3454573 Z M73.1724138,75.973913 C78.047755,75.973913 82,72.0495915 82,67.2086957 C82,62.3677998 78.047755,58.4434783 73.1724138,58.4434783 C68.2970726,58.4434783 64.3448276,62.3677998 64.3448276,67.2086957 C64.3448276,72.0495915 68.2970726,75.973913 73.1724138,75.973913 L73.1724138,75.973913 Z M50,36.5304348 C54.8753412,36.5304348 58.8275862,32.6061133 58.8275862,27.7652174 C58.8275862,22.9243215 54.8753412,19 50,19 C45.1246588,19 41.1724138,22.9243215 41.1724138,27.7652174 C41.1724138,32.6061133 45.1246588,36.5304348 50,36.5304348 L50,36.5304348 Z M26.8275862,75.973913 C31.7029274,75.973913 35.6551724,72.0495915 35.6551724,67.2086957 C35.6551724,62.3677998 31.7029274,58.4434783 26.8275862,58.4434783 C21.952245,58.4434783 18,62.3677998 18,67.2086957 C18,72.0495915 21.952245,75.973913 26.8275862,75.973913 L26.8275862,75.973913 Z" id="Combined-Shape"></path>
            </g>
        </g>
    </g>
</svg>