<?xml version="1.0" encoding="UTF-8" standalone="no"?>
<svg width="24px" height="24px" viewBox="0 0 24 24" version="1.1" xmlns="http://www.w3.org/2000/svg" xmlns:xlink="http://www.w3.org/1999/xlink">
    <!-- Generator: Sketch 3.6.1 (26313) - http://www.bohemiancoding.com/sketch -->
    <title>Icon/20px/ic_search</title>
    <desc>Created with Sketch.</desc>
    <defs></defs>
    <g id="Page-1" stroke="none" stroke-width="1" fill="none" fill-rule="evenodd">
        <g id="web-copy-8" transform="translate(-681.000000, -198.000000)" fill="#FFFFFF">
            <g id="search_box" transform="translate(670.000000, 190.000000)">
                <g id="Group-10">
                    <g id="nav_search_box">
                        <g id="Icon/20px/ic_search" transform="translate(6.666667, 3.333333)">
                            <rect id="Rectangle-4" opacity="0" x="0" y="0" width="33.3333333" height="33.3333333"></rect>
                            <path d="M21.6833379,21.6814618 L21.6833379,21.6814618 C25.0123584,18.3528156 25.0123584,12.9560138 21.6833379,9.62736758 C18.3543173,6.29872139 12.9569086,6.29872139 9.627888,9.62736758 C6.29886745,12.9560138 6.29886745,18.3528156 9.627888,21.6814618 C12.9569086,25.010108 18.3543173,25.010108 21.6833379,21.6814618 L21.6833379,21.6814618 L21.6833379,21.6814618 Z M21.5428305,24.5375077 C17.4045896,27.2857782 11.7691603,26.8360168 8.12095677,23.1882235 C3.95968108,19.0274158 3.95968108,12.2814136 8.12095677,8.12060581 C12.2822325,3.95979806 19.0289934,3.95979806 23.1902691,8.12060581 C26.8384174,11.7683439 27.288271,17.403024 24.5398299,21.5407822 C24.5988637,21.5887873 24.656117,21.640383 24.7113186,21.6955785 L27.6969445,24.6808686 C28.536997,25.5208266 28.5491203,26.8705456 27.7110628,27.7085089 C26.8788076,28.5406704 25.5360288,28.547243 24.683082,27.6943922 L21.6974561,24.709102 C21.6423494,24.6540014 21.5908054,24.5967072 21.5428305,24.5375077 L21.5428305,24.5375077 Z" id="Shape"></path>
                        </g>
                    </g>
                </g>
            </g>
        </g>
    </g>
</svg>