<?xml version="1.0" encoding="UTF-8" standalone="no"?>
<svg width="100px" height="100px" viewBox="0 0 100 100" version="1.1" xmlns="http://www.w3.org/2000/svg" xmlns:xlink="http://www.w3.org/1999/xlink">
    <!-- Generator: Sketch 3.6.1 (26313) - http://www.bohemiancoding.com/sketch -->
    <title>ic_techcal_w</title>
    <desc>Created with Sketch.</desc>
    <defs></defs>
    <g id="Page-1" stroke="none" stroke-width="1" fill="none" fill-rule="evenodd">
        <g id="Artboard-18-Copy-10" fill="#FFFFFF">
            <g id="ic_techcal">
                <rect id="Rectangle-19" opacity="0" x="0" y="0" width="100" height="100"></rect>
                <g id="Group" transform="translate(18.000000, 18.000000)">
                    <path d="M4,5.99729162 L4,5.99729162 L4,42.0027084 C4,43.1084602 4.89232768,44 5.99306965,44 L58.0069304,44 C59.0976918,44 60,43.1057821 60,42.0027084 L60,5.99729162 C60,4.89153983 59.1076723,4 58.0069304,4 L5.99306965,4 C4.90230818,4 4,4.89421792 4,5.99729162 L4,5.99729162 Z M47,60 L47,53.9973917 C47,52.8958578 46.1083227,52 45.008383,52 L18.991617,52 C17.8978404,52 17,52.8942627 17,53.9973917 L17,60 L4,60 L4,64 L60,64 L60,60 L47,60 Z M0,5.99729162 C0,2.6873233 2.69091843,0 5.99306965,0 L58.0069304,0 C61.3188009,0 64,2.68439015 64,5.99729162 L64,42.0027084 C64,45.3126767 61.3090816,48 58.0069304,48 L5.99306965,48 C2.68119906,48 0,45.3156099 0,42.0027084 L0,5.99729162 Z M12,30 L16,30 L16,40 L12,40 L12,30 Z M24,23 L28,23 L28,40 L24,40 L24,23 Z M36,13 L40,13 L40,40 L36,40 L36,13 Z M48,19 L52,19 L52,40 L48,40 L48,19 Z" id="Combined-Shape"></path>
                </g>
            </g>
        </g>
    </g>
</svg>