<?xml version="1.0" encoding="UTF-8" standalone="no"?>
<svg width="604px" height="315px" viewBox="0 0 604 315" version="1.1" xmlns="http://www.w3.org/2000/svg" xmlns:xlink="http://www.w3.org/1999/xlink">
    <!-- Generator: Sketch 3.6.1 (26313) - http://www.bohemiancoding.com/sketch -->
    <title>img_404</title>
    <desc>Created with Sketch.</desc>
    <defs>
        <filter x="-50%" y="-50%" width="200%" height="200%" filterUnits="objectBoundingBox" id="filter-1">
            <feGaussianBlur stdDeviation="8" in="SourceGraphic" result="blur"></feGaussianBlur>
        </filter>
        <linearGradient x1="50%" y1="100%" x2="50%" y2="-21.2495558%" id="linearGradient-2">
            <stop stop-color="#103557" stop-opacity="0.5" offset="0%"></stop>
            <stop stop-color="#07182C" stop-opacity="0.1" offset="100%"></stop>
        </linearGradient>
        <filter x="-50%" y="-50%" width="200%" height="200%" filterUnits="objectBoundingBox" id="filter-3">
            <feGaussianBlur stdDeviation="0" in="SourceGraphic" result="blur"></feGaussianBlur>
        </filter>
        <linearGradient x1="0%" y1="39.2156323%" x2="100%" y2="39.2156333%" id="linearGradient-4">
            <stop stop-color="#EEEEEE" offset="0%"></stop>
            <stop stop-color="#CBCBCB" offset="68.4669962%"></stop>
            <stop stop-color="#B3B3B3" offset="100%"></stop>
        </linearGradient>
        <filter x="-50%" y="-50%" width="200%" height="200%" filterUnits="objectBoundingBox" id="filter-5">
            <feOffset dx="2" dy="2" in="SourceAlpha" result="shadowOffsetOuter1"></feOffset>
            <feGaussianBlur stdDeviation="1.5" in="shadowOffsetOuter1" result="shadowBlurOuter1"></feGaussianBlur>
            <feColorMatrix values="0 0 0 0 0   0 0 0 0 0   0 0 0 0 0  0 0 0 0.14 0" in="shadowBlurOuter1" type="matrix" result="shadowMatrixOuter1"></feColorMatrix>
            <feMerge>
                <feMergeNode in="shadowMatrixOuter1"></feMergeNode>
                <feMergeNode in="SourceGraphic"></feMergeNode>
            </feMerge>
        </filter>
        <linearGradient x1="28.785506%" y1="0%" x2="70.5891683%" y2="100%" id="linearGradient-6">
            <stop stop-color="#FF5540" offset="0%"></stop>
            <stop stop-color="#EC3F3F" offset="100%"></stop>
        </linearGradient>
        <filter x="-50%" y="-50%" width="200%" height="200%" filterUnits="objectBoundingBox" id="filter-7">
            <feOffset dx="0" dy="1" in="SourceAlpha" result="shadowOffsetOuter1"></feOffset>
            <feGaussianBlur stdDeviation="1" in="shadowOffsetOuter1" result="shadowBlurOuter1"></feGaussianBlur>
            <feColorMatrix values="0 0 0 0 0   0 0 0 0 0   0 0 0 0 0  0 0 0 0.07 0" in="shadowBlurOuter1" type="matrix" result="shadowMatrixOuter1"></feColorMatrix>
            <feMerge>
                <feMergeNode in="shadowMatrixOuter1"></feMergeNode>
                <feMergeNode in="SourceGraphic"></feMergeNode>
            </feMerge>
        </filter>
        <linearGradient x1="50%" y1="0%" x2="50%" y2="100%" id="linearGradient-8">
            <stop stop-color="#FFFFFF" stop-opacity="0.5" offset="0%"></stop>
            <stop stop-color="#878787" stop-opacity="0.5" offset="100%"></stop>
        </linearGradient>
        <path d="M113.530997,60.9282726 L113.530997,0.514886811 L120.694912,0.514886811 L133.41939,36.7629183 L132.771226,20.2865404 L132.771226,0.514886811 L140.992672,0.514886811 L140.992672,60.9282726 L134.511034,60.9282726 L121.445418,23.410187 L121.957126,39.2687008 L121.957126,60.9282726 L113.530997,60.9282726 Z M162.075051,54.2004183 C163.485098,54.2004183 164.445963,53.5768394 164.957674,52.3296629 C165.469384,51.0824864 165.725236,49.2231915 165.725236,46.7517224 L165.725236,23.7191191 C165.725236,21.2018821 165.463699,19.3139827 164.940617,18.0553642 C164.417534,16.7967457 163.450984,16.1674459 162.040937,16.1674459 C160.630889,16.1674459 159.664339,16.7910248 159.141257,18.0382013 C158.618175,19.2853778 158.356637,21.1789981 158.356637,23.7191191 L158.356637,46.7517224 C158.356637,50.5275779 158.970681,52.8388245 160.198787,53.6855315 C160.699126,54.0287911 161.324541,54.2004183 162.075051,54.2004183 L162.075051,54.2004183 Z M162.075051,61.5461368 C157.253598,61.5461368 153.910471,60.0930263 152.045569,57.1867618 C150.180668,54.2804973 149.248231,50.0813513 149.248231,44.5891978 L149.248231,25.3324311 C149.248231,14.3252402 153.512424,8.82172736 162.040937,8.82172736 C170.56945,8.82172736 174.833642,14.3252402 174.833642,25.3324311 L174.833642,44.5891978 C174.833642,53.1706876 172.639004,58.4453642 168.249663,60.4133858 C166.566703,61.1685569 164.50852,61.5461368 162.075051,61.5461368 L162.075051,61.5461368 Z M192.402291,61.2715305 C189.218313,61.2715305 187.080531,60.6593934 185.988881,59.4351009 C184.897232,58.2108083 184.351415,56.0883517 184.351415,53.0676673 L184.351415,17.0942421 L180.189522,17.0942421 L180.189522,10.5036909 L184.351415,10.5036909 L184.351415,0.480561024 L193.391594,0.480561024 L193.391594,10.5036909 L198.37222,10.5036909 L198.37222,17.0942421 L193.391594,17.0942421 L193.391594,51.4886811 C193.391594,52.7015317 193.704301,53.4795751 194.329725,53.8228346 C194.95515,54.1660942 196.35949,54.3377215 198.54279,54.3377215 L198.54279,61.2715305 L192.402291,61.2715305 Z M205.058541,60.9282726 L205.058541,0.514886811 L225.663325,0.514886811 L225.663325,8.51279528 L214.201061,8.51279528 L214.201061,24.5772638 L224.844592,24.5772638 L224.844592,32.609498 L214.201061,32.609498 L214.201061,60.9282726 L205.058541,60.9282726 Z M244.323619,54.2004183 C245.733666,54.2004183 246.694531,53.5768394 247.206242,52.3296629 C247.717952,51.0824864 247.973804,49.2231915 247.973804,46.7517224 L247.973804,23.7191191 C247.973804,21.2018821 247.712267,19.3139827 247.189185,18.0553642 C246.666103,16.7967457 245.699552,16.1674459 244.289505,16.1674459 C242.879457,16.1674459 241.912907,16.7910248 241.389825,18.0382013 C240.866743,19.2853778 240.605206,21.1789981 240.605206,23.7191191 L240.605206,46.7517224 C240.605206,50.5275779 241.219249,52.8388245 242.447355,53.6855315 C242.947695,54.0287911 243.573109,54.2004183 244.323619,54.2004183 L244.323619,54.2004183 Z M244.323619,61.5461368 C239.502166,61.5461368 236.159039,60.0930263 234.294137,57.1867618 C232.429236,54.2804973 231.496799,50.0813513 231.496799,44.5891978 L231.496799,25.3324311 C231.496799,14.3252402 235.760992,8.82172736 244.289505,8.82172736 C252.818018,8.82172736 257.08221,14.3252402 257.08221,25.3324311 L257.08221,44.5891978 C257.08221,53.1706876 254.887572,58.4453642 250.498231,60.4133858 C248.815271,61.1685569 246.757088,61.5461368 244.323619,61.5461368 L244.323619,61.5461368 Z M274.105037,61.5804626 C268.032736,61.5804626 264.996631,57.4728511 264.996631,49.2575049 L264.996631,9.43959154 L274.070923,9.43959154 L274.070923,47.8501476 C274.070923,49.9783571 274.33246,51.5516066 274.855542,52.5699434 C275.378625,53.5882802 276.356546,54.0974409 277.789336,54.0974409 C280.541203,54.0974409 281.917116,52.0379143 281.917116,47.9187992 L281.95123,9.43959154 L290.957294,9.43959154 L290.957294,60.9282726 L281.917116,60.9282726 L281.917116,55.5734498 C280.484326,59.578145 277.880325,61.5804626 274.105037,61.5804626 L274.105037,61.5804626 Z M317.224983,8.82172736 C323.138085,8.82172736 326.094592,12.6776189 326.094592,20.3895177 L326.094592,60.9282726 L317.054414,60.9282726 L317.054414,20.9387303 C317.054414,19.4512721 316.718964,18.284207 316.048054,17.4375 C315.377145,16.590793 314.404909,16.1674459 313.131317,16.1674459 C311.857726,16.1674459 310.851377,16.716653 310.112239,17.8150837 C309.373101,18.9135144 309.003538,20.3895084 309.003538,22.2431102 L309.003538,60.9282726 L299.963359,60.9282726 L299.963359,9.43959154 L309.003538,9.43959154 L309.003538,15.343627 C309.458392,13.5129092 310.436313,11.9682642 311.937332,10.7096457 C313.43835,9.45102717 315.200883,8.82172736 317.224983,8.82172736 L317.224983,8.82172736 Z M343.424444,61.4431594 C340.672577,61.4431594 338.614394,60.665116 337.249832,59.1090059 C335.885269,57.5528958 335.004003,55.5791827 334.606006,53.1878076 C334.208008,50.7964324 334.009013,47.8959324 334.009013,44.4862205 L334.009013,23.5131644 C334.009013,19.2109775 334.793624,15.6868986 336.362871,12.9408219 C337.932117,10.1947451 340.524746,8.82172736 344.140836,8.82172736 C345.550883,8.82172736 346.841512,9.1649818 348.012761,9.85150098 C349.18401,10.5380202 350.09939,11.4648072 350.758929,12.6318898 L350.758929,0 L359.799107,0 L359.799107,60.9282726 L350.758929,60.9282726 L350.758929,56.1569882 C349.394366,59.68112 346.949563,61.4431594 343.424444,61.4431594 L343.424444,61.4431594 Z M343.919095,52.0893824 C344.453549,53.4967467 345.454213,54.2004183 346.921117,54.2004183 C348.388021,54.2004183 349.400056,53.4967467 349.957252,52.0893824 C350.514449,50.6820181 350.793042,48.3307251 350.793042,45.0354331 L350.793042,24.4399606 C350.793042,20.2064257 350.156256,17.6434592 348.882665,16.7509843 C348.33684,16.3848407 347.677312,16.2017717 346.90406,16.2017717 C345.380299,16.2017717 344.368264,16.8997224 343.867925,18.2956447 C343.367585,19.691567 343.117419,21.7739773 343.117419,24.542938 L343.117419,45.7219488 C343.117419,48.5595614 343.384642,50.6820181 343.919095,52.0893824 L343.919095,52.0893824 Z" id="path-9"></path>
    </defs>
    <g id="Page-1" stroke="none" stroke-width="1" fill="none" fill-rule="evenodd">
        <g id="Artboard-1-Copy" transform="translate(-742.000000, -77.000000)">
            <g id="Group-6-Copy-2" transform="translate(764.000000, 99.000000)">
                <path d="M0,0 C0,0 182.911458,5 280,5 C376.244792,5 560,0 560,0 L560,272 C560,272 348.130208,257.307692 280,257.307692 C186.466146,257.307692 0,272 0,272 L0,0 Z" id="Rectangle-4" fill="#000000" opacity="0.2" filter="url(#filter-1)"></path>
                <rect id="Rectangle-4-Copy" fill="#FFFFFF" x="0" y="0" width="560" height="260"></rect>
                <g id="Group-2" transform="translate(49.000000, 41.000000)">
                    <path d="M71.8005076,106.552711 L96.0302922,101.545883 L106.68574,94.4651591 L97.5250346,89.4583312 L87.8522122,89.4583312 L89.40992,88.4232082 L85.0954039,88.4232082 L83.537696,89.4583312 L73.9143927,89.4583312 L49.6846081,94.4651591 L39.0291602,101.545883 L48.1898657,106.552711 L57.8131691,106.552711 L28.0443548,126.334587 L32.358871,126.334587 L62.1276852,106.552711 L71.8005076,106.552711 Z" id="Combined-Shape" fill="url(#linearGradient-2)" opacity="0.4" filter="url(#filter-3)"></path>
                    <rect id="Rectangle-1" fill="url(#linearGradient-4)" x="26.75" y="0" width="4.31451613" height="127"></rect>
                    <g id="Group" filter="url(#filter-5)" transform="translate(0.000000, 4.334471)">
                        <path d="M40.3058869,1.0658141e-14 L57.001132,16.7724614 L57.001132,40.4923038 L40.3058869,57.2647652 L16.695245,57.2647652 L5.13424428e-14,40.4923038 L3.90798505e-14,16.7724614 L16.695245,2.29774485e-14 L40.3058869,1.0658141e-14 L40.3058869,1.0658141e-14 Z" id="Polygon-1" fill="url(#linearGradient-6)"></path>
                        <path d="M38.4929148,2.79199861 L38.4929148,2.79199861 L39.5560192,3.2337884 L17.3955937,3.2337884 L18.4586981,2.79199861 L2.78891094,18.5342594 L3.22580645,17.4760492 L3.22580645,39.7389679 L2.78891094,38.6807577 L18.4586981,54.4230185 L17.3955937,53.9812287 L39.5560192,53.9812287 L38.4929148,54.4230185 L54.162702,38.6807577 L53.7258065,39.7389679 L53.7258065,17.4760492 L54.162702,18.5342594 L38.4929148,2.79199861 Z M39.5560192,1.7337884 L55.2258065,17.4760492 L55.2258065,39.7389679 L39.5560192,55.4812287 L17.3955937,55.4812287 L1.72580645,39.7389679 L1.72580645,17.4760492 L17.3955937,1.7337884 L39.5560192,1.7337884 L39.5560192,1.7337884 Z" id="Polygon-1-Copy" fill="#FFFFFF"></path>
                        <path d="M8.42510396,24.5380159 C8.27342099,24.0046702 8.19758065,23.3655114 8.19758065,22.6205205 C8.19758065,21.0035515 8.494622,19.7188847 9.08871362,18.7664816 C9.68280523,17.8140784 10.8183037,17.337884 12.4952432,17.337884 C14.652512,17.337884 15.9249445,18.3791625 16.3125788,20.4617507 C16.4811154,21.3591262 16.5653824,22.4892943 16.5653824,23.8522891 L16.5653824,25.1729482 L14.062626,25.1729482 L14.062626,23.6745081 C14.062626,22.2522526 13.990999,21.2956309 13.8477429,20.8046142 C13.7044867,20.3135974 13.5275259,19.9876688 13.3168552,19.8268185 C13.1061844,19.6659682 12.8323165,19.5855442 12.4952432,19.5855442 C11.8632308,19.5855442 11.4081888,19.8183504 11.1301033,20.2839697 C10.8520179,20.749589 10.7129773,21.4395419 10.7129773,22.3538489 C10.7129773,23.268156 10.8393778,23.9369446 11.0921828,24.3602349 C11.3449877,24.7835252 11.6567758,25.1877614 12.0275564,25.5729556 C12.398337,25.9581497 12.6047912,26.176141 12.6469254,26.2269358 L14.1637475,27.8396638 C15.9839431,29.7529359 16.8940272,31.8947527 16.8940272,34.2651784 C16.8940272,36.1953821 16.5969859,37.6705267 16.0028942,38.6906563 C15.4088026,39.710786 14.2775175,40.2208431 12.6090049,40.2208431 C10.5949921,40.2208431 9.31834632,39.3319468 8.77902911,37.5541276 C8.46723634,36.5551625 8.3113423,35.247215 8.3113423,33.6302461 L8.3113423,33.5032597 L8.3113423,31.3317913 L10.8520193,31.3317913 L10.8520193,33.6048488 C10.8520193,35.2387494 10.9699931,36.3752668 11.2059444,37.0144351 C11.4418957,37.6536035 11.8800844,37.9731829 12.5205236,37.9731829 C13.1609628,37.9731829 13.6033648,37.8229171 13.8477429,37.5223809 C14.092121,37.2218448 14.2332683,36.7625817 14.271189,36.1445779 C14.3091098,35.5265741 14.3280699,34.8323884 14.3280699,34.0620001 C14.3280699,32.5127576 13.6497201,31.0566608 12.2930003,29.693666 L10.8393791,28.2333218 C9.54164705,26.8957244 8.73689672,25.6639681 8.42510396,24.5380159 L8.42510396,24.5380159 Z M18.2338867,17.6172542 L25.5778336,17.6172542 L25.5778336,19.8014212 L23.2899603,19.8014212 L23.2899603,39.9668702 L20.6860824,39.9668702 L20.6860824,19.8014212 L18.2338867,19.8014212 L18.2338867,17.6172542 Z M27.4991416,23.6872067 C27.4991416,21.1474649 27.9541836,19.403535 28.8642814,18.4553648 C29.5805621,17.7103738 30.6212602,17.337884 31.9864069,17.337884 C33.9751391,17.337884 35.2475716,18.1590548 35.8037424,19.8014212 C36.1323889,20.7749889 36.2967096,22.0702378 36.2967096,23.6872067 L36.2967096,33.5413556 C36.2967096,35.8694522 35.9722815,37.5647045 35.3234154,38.6271631 C34.6745494,39.6896218 33.5390509,40.2208431 31.9168859,40.2208431 C30.2947208,40.2208431 29.1529023,39.6875053 28.491396,38.6208138 C27.8298897,37.5541222 27.4991416,35.8609864 27.4991416,33.5413556 L27.4991416,23.6872067 Z M33.6801915,23.534823 C33.6801915,22.1041017 33.566431,21.0903367 33.3389066,20.4934974 C33.1113821,19.896658 32.6521267,19.5982429 31.9611265,19.5982429 C31.2701263,19.5982429 30.7898041,19.9030073 30.5201455,20.5125453 C30.2504869,21.1220834 30.1156597,22.1252663 30.1156597,23.5221243 L30.1156597,33.5667529 C30.1156597,35.2683799 30.2336335,36.4260615 30.4695848,37.0398324 C30.7055361,37.6536034 31.1816449,37.9604842 31.8979256,37.9604842 C32.6142063,37.9604842 33.0903151,37.6493705 33.3262664,37.0271338 C33.5622177,36.404897 33.6801915,35.2514483 33.6801915,33.5667529 L33.6801915,23.534823 Z M39.6842789,17.6172542 L44.158904,17.6172542 C46.1307826,17.6172542 47.3695082,18.438425 47.8751181,20.0807914 C48.1953377,21.1136197 48.3554451,22.319979 48.3554451,23.6999053 C48.3554451,25.0798317 48.317525,26.1168774 48.2416835,26.8110735 C48.0731468,28.3349186 47.6728783,29.4460389 47.040866,30.1444679 C46.4088536,30.8428969 45.4482093,31.1921062 44.158904,31.1921062 L42.300797,31.1921062 L42.300797,39.9668702 L39.6842789,39.9668702 L39.6842789,17.6172542 Z M45.738927,23.928481 C45.738927,22.3961701 45.6188465,21.3083303 45.3786818,20.6649291 C45.1385171,20.0215278 44.6645149,19.699832 43.9566611,19.699832 L42.300797,19.699832 L42.300797,29.0079392 L43.8934602,29.0079392 C44.6350213,29.0079392 45.1279836,28.6820105 45.3723617,28.0301435 C45.6167398,27.3782764 45.738927,26.1549858 45.738927,24.3602349 L45.738927,23.928481 Z" id="STOP" stroke="#FFFFFF" stroke-width="0.529166667" fill="#FFFFFF"></path>
                    </g>
                </g>
                <g id="Group-4" transform="translate(126.000000, 104.000000)">
                    <path d="M22.0900433,56.4166521 L8.15180126,56.4166521 L12.9423692,53.1354868 L52.5183637,32.2492873 L59.2299184,32.2492873 L34.1518371,52.8190293 L38.3444834,52.8190293 L34.1334552,56.4166521 L29.7657111,56.4166521 L23.450502,61.5965629 L15.3317907,61.5965629 L22.0900433,56.4166521 Z M26.7838778,52.8190293 L45.6678696,38.3452594 L19.785858,52.8190293 L26.7838778,52.8190293 Z M58.5364315,53.7517463 L71.7551678,39.4778444 C73.743501,37.3125976 74.1161734,36.0967465 72.8810047,35.8302545 C72.6267904,35.7858392 72.1742902,35.7636319 71.5232044,35.7636319 C70.8721186,35.7636319 70.0297411,35.9801533 68.99039,36.4132027 C67.9434968,36.8462521 66.6021913,37.8622372 64.9720898,39.4611887 L50.4031303,53.7517463 C48.5466258,55.5727744 47.6959167,56.7497627 47.8571765,57.2827465 C48.0267017,57.8157304 48.8069559,58.0822183 50.1917633,58.0822183 C51.5765707,58.0822183 52.9053018,57.8074026 54.1712103,57.257763 C55.4280706,56.7081235 56.8808677,55.5394629 58.5364315,53.7517463 Z M38.4546293,59.8310627 C37.8985964,58.4319802 39.1547174,56.3778025 42.1757148,53.668468 L57.7944405,39.6610567 C60.6668642,37.0849682 63.6043165,35.1501548 66.5626746,33.8565587 C69.4620846,32.5629625 72.5006424,31.9161741 75.7226498,31.9161741 C78.9446572,31.9161741 80.7250816,32.5629625 81.1081871,33.8565587 C81.5502407,35.1501548 80.7240922,37.0849682 78.5855061,39.6610567 L66.9570021,53.668468 C64.7077995,56.3778025 61.9681321,58.4319802 58.6906025,59.8310627 C55.3499856,61.2301453 51.2812215,61.9296761 46.5315035,61.9296761 C41.7817856,61.9296761 39.0737495,61.2301453 38.4546293,59.8310627 Z M85.0690585,56.4166521 L71.1308165,56.4166521 L73.618714,53.1354868 L98.5371004,32.2492873 L105.248655,32.2492873 L94.6060969,52.8190293 L98.7987431,52.8190293 L97.1124704,56.4166521 L92.7447264,56.4166521 L90.0646975,61.5965629 L81.9459863,61.5965629 L85.0690585,56.4166521 Z M87.2381376,52.8190293 L95.9646642,38.3452594 L80.2401177,52.8190293 L87.2381376,52.8190293 Z M121.365944,32.265943 L126.29526,32.265943 L133.944474,49.8543215 L133.93607,41.859604 L134.604679,32.265943 L140.261656,32.265943 L140.74692,61.5799072 L134.293847,61.5799072 L124.717492,43.3752692 L123.719991,51.0701848 L121.795264,61.5799072 L113.406269,61.5799072 L121.365944,32.265943 Z M163.488322,57.407664 C163.809975,56.8025053 163.802868,55.9003326 163.471873,54.701119 L160.387196,43.5251701 C160.050072,42.3037489 159.592248,41.3876966 159.018737,40.776986 C158.451929,40.1662754 157.629769,39.8609246 156.547204,39.8609246 C155.464639,39.8609246 154.786845,40.1634994 154.50882,40.7686582 C154.224154,41.3738169 154.201788,42.292645 154.446703,43.5251701 L156.667478,54.701119 C157.031542,56.5332509 157.840442,57.6547209 159.102144,58.0655626 C159.619022,58.2321201 160.238857,58.3153976 160.960357,58.3153976 C162.315901,58.3153976 163.160172,58.0128227 163.488322,57.407664 Z M151.510551,59.7644401 C149.530119,58.3542537 148.423155,56.3167315 148.148246,53.6518123 L147.184348,44.3079862 C146.633384,38.9670441 149.472299,36.2966131 155.701178,36.2966131 C161.930058,36.2966131 166.03668,38.9670441 168.02117,44.3079862 L171.492978,53.6518123 C173.040137,57.8157485 171.833881,60.3751429 167.808218,61.3300723 C166.241457,61.6964987 164.238056,61.8797091 161.807658,61.8797091 C156.99229,61.8797091 153.546161,61.1746265 151.510551,59.7644401 Z M185.190842,60.8553859 C183.828857,60.261331 182.80751,59.2314663 182.116565,57.7657607 L173.888082,40.3106275 L170.673152,40.3106275 L169.305264,37.1127405 L172.380574,37.1127405 L170.087905,32.2492873 L176.306653,32.2492873 L179.060551,37.1127405 L182.740841,37.1127405 L184.71871,40.3106275 L180.871334,40.3106275 L190.321353,56.9996003 C190.654589,57.5881033 191.167833,57.9656278 191.862739,58.1321853 C192.559831,58.2987427 193.959392,58.3820202 196.059826,58.3820202 L198.146729,61.7464638 L192.022562,61.7464638 C188.847052,61.7464638 186.566434,61.4494408 185.190842,60.8553859 Z M184.343828,32.265943 L198.521481,32.265943 L202.032758,36.1467121 L193.679211,36.1467121 L199.794617,43.9415617 L208.421821,43.9415617 L211.914694,47.8389865 L202.85232,47.8389865 L213.632683,61.5799072 L204.530453,61.5799072 L184.343828,32.265943 Z M241.774503,57.407664 C241.574009,56.8025053 240.788484,55.9003326 239.422775,54.701119 L226.695198,43.5251701 C225.304199,42.3037489 224.055981,41.3876966 222.955534,40.776986 C221.861789,40.1662754 220.776164,39.8609246 219.693599,39.8609246 C218.611034,39.8609246 218.194309,40.1634994 218.438431,40.7686582 C218.675912,41.3738169 219.446335,42.292645 220.754705,43.5251701 L232.618381,54.701119 C234.563256,56.5332509 236.33979,57.6547209 237.955977,58.0655626 C238.616565,58.2321201 239.308254,58.3153976 240.029753,58.3153976 C241.385298,58.3153976 241.9685,58.0128227 241.774503,57.407664 Z M231.83022,59.7644401 C228.633041,58.3542537 225.768051,56.3167315 223.193779,53.6518123 L214.167784,44.3079862 C209.008515,38.9670441 209.543312,36.2966131 215.772192,36.2966131 C222.001071,36.2966131 228.411812,38.9670441 235.004606,44.3079862 L246.538512,53.6518123 C251.678424,57.8157485 252.68048,60.3751429 249.478755,61.3300723 C248.228157,61.6964987 246.382834,61.8797091 243.952436,61.8797091 C239.137068,61.8797091 235.082575,61.1746265 231.83022,59.7644401 Z M256.743982,55.9169823 L231.290799,36.596415 L237.946833,36.596415 L264.274566,55.2341002 C265.733303,56.2667564 267.059557,57.0301332 268.257433,57.5242536 C269.460731,58.0183741 270.752724,58.2654306 272.129381,58.2654306 C274.773437,58.2654306 274.601529,57.2661009 271.613653,55.2674115 L243.727072,36.596415 L250.333061,36.596415 L290.050653,61.5799072 L281.050315,61.5799072 L277.166095,58.981624 C278.654345,60.9247942 277.490991,61.8963648 273.719807,61.8963648 C267.654107,61.8963648 261.995556,59.9032572 256.743982,55.9169823 Z M286.511499,41.909571 L325.033102,61.5799072 L316.032763,61.5799072 L279.873222,42.1760616 C278.528225,41.4543126 277.21178,40.8880258 275.928183,40.4771841 C274.65037,40.0663424 273.524748,39.8609246 272.546948,39.8609246 C271.569147,39.8609246 271.275787,40.1274125 271.66066,40.6603964 C272.037268,41.1933802 273.022513,41.9095665 274.622624,42.8089767 L308.017367,61.5799072 L299.017029,61.5799072 L256.93905,36.596415 L263.570061,36.596415 L268.666685,39.4611887 C267.429397,38.5728824 266.822312,37.8233851 266.837345,37.2126744 C266.833145,36.6019638 267.562982,36.2966131 269.041303,36.2966131 C273.359993,36.2966131 279.183333,38.1675803 286.511499,41.909571 Z M334.307135,60.6971571 C331.404992,59.9420967 328.577737,58.9844058 325.81634,57.8240555 C323.064633,56.6637053 320.003752,55.256316 316.626339,53.6018454 L295.851949,43.4252362 C291.590515,41.3377162 288.700284,39.627752 287.148269,38.2952924 C285.552383,36.9628329 286.058503,36.2966131 288.699548,36.2966131 C289.72939,36.2966131 291.034437,36.463168 292.620869,36.7962829 C294.215487,37.1293978 295.885955,37.5790962 297.632063,38.1453915 L284.042824,32.0161081 L290.239458,32.0161081 L358.589082,61.5799072 L349.588743,61.5799072 L344.455852,59.2647703 C346.897185,60.9747601 346.340091,61.8297421 342.821268,61.8297421 C340.074316,61.8297421 337.230896,61.4522176 334.307135,60.6971571 Z M338.661529,58.3153976 C340.071733,58.3153976 340.292515,57.9739599 339.317895,57.2910744 C338.335292,56.6081888 336.068226,55.4672874 332.522617,53.8683359 L310.362674,43.874939 C305.807552,41.8207305 302.55622,40.5771202 300.61726,40.1440709 C299.807203,39.9664096 299.106048,39.8775803 298.512248,39.8775803 C297.342113,39.8775803 297.293089,40.216242 298.35984,40.8935756 C299.419481,41.5709093 301.382162,42.5813426 304.253273,43.924906 L326.213605,54.2014492 C329.155901,55.5783241 331.608766,56.6081888 333.578016,57.2910744 C335.554923,57.9739599 337.251325,58.3153976 338.661529,58.3153976 Z" id="404-NotFound" fill="url(#linearGradient-2)" opacity="0.5"></path>
                    <g id="Group-3" filter="url(#filter-7)">
                        <path d="M14.8054245,61.1685531 L14.8054245,50.4932333 L0,50.4932333 L0,43.7310531 L13.2020721,0.686515748 L22.9586422,0.686515748 L22.9586422,43.0788632 L27.5981301,43.0788632 L27.5981301,50.4932333 L22.9586422,50.4932333 L22.9586422,61.1685531 L14.8054245,61.1685531 Z M7.06157345,43.0788632 L14.8054245,43.0788632 L14.8054245,13.2497539 L7.06157345,43.0788632 Z M49.7209821,52.2266855 C50.5056053,51.0939289 50.8979111,48.6854269 50.8979111,45.0011073 L50.8979111,15.5839075 C50.8751683,11.1215328 49.840391,8.61577538 47.7935478,8.06656004 C47.3841792,7.97502415 46.7303364,7.92925689 45.8319997,7.92925689 C44.933663,7.92925689 44.0694533,8.37548766 43.2393447,9.2679626 C42.4092361,10.1604375 41.994188,12.2542896 41.994188,15.5495817 L41.994188,45.0011073 C41.994188,48.7540788 42.3637514,51.1797435 43.1028892,52.2781742 C43.8420269,53.3766049 44.9336602,53.925812 46.3778218,53.925812 C47.8219833,53.925812 48.9363589,53.3594422 49.7209821,52.2266855 L49.7209821,52.2266855 Z M46.4631065,61.8550689 C41.7098819,61.8550689 38.2587287,60.4134002 36.1095435,57.5300197 C33.9603582,54.6466391 32.8857817,50.4131677 32.8857817,44.8294783 L32.8857817,15.9614911 C32.8857817,10.6524095 33.9717294,6.66493705 36.1436573,3.99895423 C38.3155853,1.33297141 41.7553673,0 46.4631065,0 C51.1708456,0 54.6106276,1.33297141 56.7825556,3.99895423 C58.9544836,6.66493705 60.0404313,10.6524095 60.0404313,15.9614911 L60.0404313,44.8294783 C60.0404313,50.4131677 58.9658547,54.6466391 56.8166695,57.5300197 C54.6674842,60.4134002 51.216331,61.8550689 46.4631065,61.8550689 L46.4631065,61.8550689 Z M81.702746,61.1685531 L81.702746,50.4932333 L66.8973214,50.4932333 L66.8973214,43.7310531 L80.0993935,0.686515748 L89.8559636,0.686515748 L89.8559636,43.0788632 L94.4954515,43.0788632 L94.4954515,50.4932333 L89.8559636,50.4932333 L89.8559636,61.1685531 L81.702746,61.1685531 Z M73.9588949,43.0788632 L81.702746,43.0788632 L81.702746,13.2497539 L73.9588949,43.0788632 Z" id="404-NotFound" fill="url(#linearGradient-6)"></path>
                        <g id="404-NotFound-Copy">
                            <use fill="#10263E" xlink:href="#path-9"></use>
                            <use fill="url(#linearGradient-8)" style="mix-blend-mode: overlay;" xlink:href="#path-9"></use>
                        </g>
                    </g>
                </g>
            </g>
        </g>
    </g>
</svg>