<?xml version="1.0" encoding="UTF-8" standalone="no"?>
<svg width="178px" height="60px" viewBox="0 0 178 60" version="1.1" xmlns="http://www.w3.org/2000/svg" xmlns:xlink="http://www.w3.org/1999/xlink">
    <!-- Generator: Sketch 3.8.3 (29802) - http://www.bohemiancoding.com/sketch -->
    <title>web_logo</title>
    <desc>Created with Sketch.</desc>
    <defs></defs>
    <g id="Page-1" stroke="none" stroke-width="1" fill="none" fill-rule="evenodd">
        <g id="web_logo">
            <g id="Group-3">
                <g id="Group-2">
                    <rect id="Rectangle-5" fill="#D8D8D8" opacity="0" x="0" y="0" width="60" height="60"></rect>
                    <g id="Group" transform="translate(0.000000, 1.687500)">
                        <path d="M51.380209,20.2603083 L45.0531026,21.7722223 L30,30.4631351 L30,21.8028811 C30,21.8028811 39.7933038,13.406729 46.6809902,9.43012142 C47.2933038,9.07660203 51.380209,6.98133683 51.380209,6.98133683 L60,4.5 L60,39.1875 L52.5,43.546875 L52.5,17.472754 L51.380209,20.2603083 Z M15,30.5625 C15,30.5625 12.4789052,33.5513239 11.25,34.265625 C9.97890517,35.0044489 7.5,34.921875 7.5,34.921875 L7.5,17.4684906 C7.5,17.4684906 11.1876899,16.7761937 12.3901911,17.4684906 C13.6876899,18.215479 15,21.7863464 15,21.7863464 L15,30.5625 Z M37.5,52.3125 L30,56.671875 C30,56.671875 28.5737847,54.3755784 28.5737847,53.2274302 C28.5737847,51.4760066 30,47.9731597 30,47.9731597 C30,47.9731597 31.010153,45.9431095 32.2782118,45.2139757 C33.510153,44.5056095 37.5,43.6606597 37.5,43.6606597 L37.5,52.3125 Z" id="Combined-Shape" fill="#FFCA39"></path>
                        <path d="M15,30.5625 L7.5,34.921875 C7.5,34.921875 12.1251529,40.983442 15,42.6536455 C19.6251529,45.3407265 30,47.9937286 30,47.9937286 L37.5,43.6812286 L15,30.5625 Z M52.5,0.10434189 L30.0023374,13.1304719 L7.5,0.10434189 L0,4.5 C0,4.5 9.79994765,14.3361612 16.0733509,17.9544262 C19.7999476,20.1037882 30,21.8028811 30,21.8028811 L60,4.50000003 L52.5,0.10434189 Z" id="Combined-Shape" fill="#FFA700"></path>
                        <path d="M7.5,8.8125 L30,21.8028811 L30,30.4631351 L7.5,17.472754 L7.5,34.8942707 L30,47.9778871 L30,56.6322694 L0,39.1875002 L0,4.5 L7.5,8.8125 L7.5,8.8125 Z M45,39.1875 L52.5,43.546875 L52.5,17.4691772 L45,21.8025513 L45,39.1875 Z" id="Combined-Shape" fill="#FF7214"></path>
                    </g>
                </g>
                <g id="Group-6" transform="translate(75.000000, 4.500000)" fill="#FFFFFF">
                    <path d="M77.201296,4.85220849 C77.201296,2.33629781 75.1911023,0.298024322 72.7106645,0.298024322 C70.2302267,0.298024322 68.220033,2.33629781 68.220033,4.85220849 C68.220033,7.36678871 70.2302267,9.4050622 72.7106645,9.4050622 C75.1911023,9.4050622 77.201296,7.36678871 77.201296,4.85220849 L77.201296,4.85220849 Z M72.7106645,2.22586916 C73.4313503,3.68938145 74.3411994,4.28276916 75.3003375,4.85220849 C73.8576339,5.58263418 73.2714939,6.50464692 72.7106645,7.47721737 C71.9899788,6.01503554 71.0801297,5.42031736 70.1209915,4.85220849 C71.5636951,4.12178281 72.1498351,3.1984396 72.7106645,2.22586916 L72.7106645,2.22586916 Z M16.1574814,29.1012768 L24.9495811,32.7028475 L30.5858499,18.1102994 L26.4881985,16.1106094 L39.7522799,11.2863407 L39.7522799,34.4976457 C39.7522799,35.226741 39.1075259,36.19532 38.3881723,36.19532 L34.9499284,36.19532 L36.6857021,39.8727273 L44.6385559,39.8727273 C46.4302792,39.8727273 48.1314173,38.1617484 48.1314173,36.3456626 L48.1314173,7.92691478 L50.6851226,7.92691478 L50.6851226,3.41929691 L48.1314173,3.41929691 L48.1314173,0 L39.7522799,0 L39.7522799,3.41929691 L26.2124463,3.41929691 L26.2124463,7.92691478 L39.7522799,7.92691478 L39.7522799,11.2863407 L29.2617064,39.8727273 L13.6610579,34.0492788 C14.7773882,32.6403156 15.6286233,30.9918686 16.1574814,29.1012768 L16.1574814,29.1012768 Z M23.6054556,30.8069338 L23.6054556,0.828880146 L0.511540346,0.828880146 L0.511540346,30.8069338 L6.43821482,30.8069338 C5.1606961,32.1533651 3.16782016,32.9303571 0,33.7592373 L0,39.7689509 C9.04786987,38.9414013 16.0442498,33.732628 16.0442498,23.9164518 L16.0442498,8.34202009 L8.38046958,8.34202009 L8.38046958,23.4507888 C8.38046958,25.987987 8.1246994,27.8532999 7.51058456,29.2516194 L7.51058456,4.66328236 L16.9128027,4.66328236 L16.9128027,25.773782 L16.9128027,26.7663094 L16.9128027,27.7468627 L23.6054556,30.8069338 Z M67.8536955,15.6462769 L79.9121934,15.6462769 L79.9121934,32.4646941 L89.7220453,32.4646941 L89.7220453,15.6462769 L101.832497,15.6462769 L101.832497,10.5692197 L89.7220453,10.5692197 L89.7220453,0.518881632 L79.9121934,0.518881632 L79.9121934,10.5692197 L67.8536955,10.5692197 L67.8536955,15.6462769 Z M65.0948412,34.5881174 L65.0948412,8.91145942 L53.4959303,8.91145942 L53.4959303,13.8341826 L56.2041634,13.8341826 L56.2041634,34.5881174 L53.4959303,34.5881174 L53.4959303,39.4070643 L59.2614162,39.4070643 L65.0948412,39.4070643 L102.750338,39.4070643 L102.750338,34.5881174 L65.0948412,34.5881174 Z M67.3341623,32.4646941 L74.9566463,32.4646941 L79.9121934,15.6462769 L72.0952175,15.6462769 L67.3341623,32.4646941 Z M99.6864249,17.7191425 L91.3072875,17.7191425 L93.452027,32.4646941 L101.739247,32.4646941 L99.6864249,17.7191425 Z M89.8246198,10.5692197 L97.6016316,10.5692197 L103.3125,1.08832096 L93.4653483,1.08832096 L94.7108958,2.69153216 L89.8246198,10.5692197 Z M64.4820585,7.92691478 L62.5398037,0.415105306 L53.8542749,0.415105306 L55.7445764,7.92691478 L64.4820585,7.92691478 Z" id="Fill-29"></path>
                    <path d="M95.7509163,50.861183 L95.7509163,42.978817 L97.7252084,42.978817 L97.7252084,46.4871607 L100.403457,42.978817 L102.620116,42.978817 L99.8261483,46.6221218 L103.3125,50.861183 L100.74997,50.861183 L97.7252084,47.1568244 L97.7252084,50.861183 L95.7509163,50.861183 Z M87.5721654,50.861183 L87.5721654,42.978817 L90.4831373,42.978817 C91.5528937,42.978817 92.3436392,43.1658344 92.8560165,43.5366559 C93.3651794,43.90812 93.6210466,44.485239 93.6210466,45.2660849 C93.6210466,45.7005308 93.5078993,46.073923 93.2828905,46.383048 C93.0578816,46.6928156 92.7132966,46.9543829 92.2472068,47.1683925 C92.4439288,47.2397291 92.6187929,47.3586233 92.7750133,47.5257179 C92.9305909,47.6934551 93.0655962,47.9048941 93.1826008,48.1606773 L94.4413647,50.861183 L92.2144198,50.861183 L91.2102373,48.5899819 C91.0488738,48.2281578 90.8643666,47.9800866 90.6580013,47.8451256 C90.4503503,47.7088793 90.1578387,47.6413988 89.7772523,47.6413988 C89.7483226,47.6413988 89.707821,47.6433268 89.6596048,47.6471828 C89.60946,47.6510388 89.5728157,47.6529668 89.5458146,47.6529668 L89.5458146,50.861183 L87.5721654,50.861183 Z M90.4947092,46.2101693 C90.8598664,46.2101693 91.1318057,46.1330488 91.310527,45.9813783 C91.4892483,45.8297078 91.5779661,45.5983461 91.5779661,45.2872931 C91.5779661,44.9903788 91.485391,44.7641585 91.2989551,44.6079893 C91.1118763,44.4518201 90.8444372,44.3753422 90.4947092,44.3753422 L89.5458146,44.3753422 L89.5458146,46.2101693 L90.4947092,46.2101693 Z M77.1626123,46.9261054 C77.1626123,46.3393463 77.2667593,45.7988596 77.4731246,45.3007892 C77.6801327,44.8020761 77.9887163,44.3579901 78.3982324,43.9672458 C78.7968196,43.5919257 79.248766,43.3117209 79.7547145,43.1292022 C80.260663,42.9441128 80.8225423,42.8515681 81.4442096,42.8515681 C82.07102,42.8515681 82.6393282,42.9441128 83.1472053,43.1304875 C83.6550825,43.3175049 84.1070288,43.5957817 84.505616,43.9672458 C84.9112748,44.3579901 85.2192155,44.8020761 85.4268666,45.3007892 C85.6370891,45.7988596 85.7412361,46.3393463 85.7412361,46.9261054 C85.7412361,47.5083658 85.6370891,48.0475671 85.4268666,48.5456376 C85.2192155,49.043708 84.9112748,49.4839379 84.505616,49.8669702 C84.1031716,50.2422903 83.6473679,50.5250658 83.1375621,50.7152965 C82.6296849,50.9055273 82.0639483,51 81.4442096,51 C80.8263996,51 80.2664489,50.9055273 79.7605004,50.7191526 C79.2545519,50.5308498 78.8006769,50.2455037 78.3982324,49.8669702 C77.9925736,49.4839379 77.6846329,49.043708 77.476339,48.5456376 C77.2667593,48.0475671 77.1626123,47.5083658 77.1626123,46.9261054 L77.1626123,46.9261054 Z M79.1947638,46.9261054 C79.1947638,47.6279027 79.4062722,48.2069497 79.8280031,48.6587477 C80.2510197,49.1111885 80.7897553,49.3380515 81.4442096,49.3380515 C82.1005926,49.3380515 82.6412568,49.1111885 83.0642735,48.6587477 C83.4860044,48.2069497 83.6975127,47.6279027 83.6975127,46.9261054 C83.6975127,46.2198094 83.4860044,45.6388344 83.0642735,45.1851083 C82.6412568,44.7288115 82.1005926,44.5019485 81.4442096,44.5019485 C80.7897553,44.5019485 80.2510197,44.7288115 79.8280031,45.1851083 C79.4062722,45.6388344 79.1947638,46.2198094 79.1947638,46.9261054 L79.1947638,46.9261054 Z M67.908319,50.9305915 L64.7106216,42.978817 L66.765274,42.978817 L68.2991916,47.2718626 L69.8498241,42.978817 L71.1619473,42.978817 L72.7132227,47.2718626 L74.2349255,42.978817 L76.3017927,42.978817 L73.1034524,50.9305915 L72.2844201,50.9305915 L70.5081358,46.0045145 L68.7164223,50.9305915 L67.908319,50.9305915 Z M59.4505572,50.861183 L59.4505572,44.4447507 L56.8417401,44.4447507 L56.8417401,42.978817 L64.1378133,42.978817 L64.1378133,44.4447507 L61.5289962,44.4447507 L61.5289962,50.861183 L59.4505572,50.861183 Z M50.2753384,50.861183 L50.2753384,42.978817 L55.5514749,42.978817 L55.5514749,44.4331826 L52.2489876,44.4331826 L52.2489876,46.0372907 L55.4010404,46.0372907 L55.4010404,47.5025817 L52.2489876,47.5025817 L52.2489876,49.3843239 L55.6434071,49.3843239 L55.6434071,50.861183 L50.2753384,50.861183 Z M42.1422322,45.9081137 L42.1422322,50.861183 L40.1917268,50.861183 L40.1917268,42.978817 L41.9210806,42.978817 L46.1486758,47.678031 L46.1486758,42.978817 L48.0998241,42.978817 L48.0998241,50.861183 L46.5549775,50.861183 L42.1422322,45.9081137 Z M33.1528065,50.861183 L35.1843151,50.861183 L35.1843151,42.978817 L33.1528065,42.978817 L33.1528065,50.861183 Z M22.362667,50.861183 L22.362667,42.978817 L24.1042356,42.978817 L26.6346211,46.1529716 L29.1765784,42.978817 L30.9175041,42.978817 L30.9175041,50.861183 L28.9779277,50.861183 L28.9779277,45.9833063 L26.6346211,48.8650453 L24.3138153,45.9833063 L24.3138153,50.861183 L22.362667,50.861183 Z M18.1093565,50.861183 L20.141508,50.861183 L20.141508,42.978817 L18.1093565,42.978817 L18.1093565,50.861183 Z M8.09131887,50.861183 L11.5288115,42.978817 L13.8059012,42.978817 L16.8763079,50.861183 L14.7850112,50.861183 L14.2212033,49.3264834 L10.8229265,49.3264834 L10.1916159,50.861183 L8.09131887,50.861183 Z M11.3925204,47.9762306 L13.7203978,47.9762306 L12.6159258,44.9749547 L11.3925204,47.9762306 Z M7.29671613,50.199874 C6.82355462,50.4710814 6.33817835,50.6709522 5.84187308,50.8039852 C5.34556781,50.9350902 4.82419012,51 4.27966866,51 C3.66378724,51 3.09612201,50.9055273 2.58053027,50.7191526 C2.06300987,50.5308498 1.61106349,50.2538584 1.22404824,49.8901063 C0.826103984,49.5109301 0.522020572,49.0668441 0.313726649,48.5610617 C0.104146961,48.0533512 0,47.5083658 0,46.9261054 C0,45.7005308 0.408230374,44.7140301 1.22597689,43.9633898 C2.0437234,43.2153202 3.12312308,42.84 4.46417593,42.84 C4.94505202,42.84 5.41435623,42.8926991 5.87080279,42.9980972 C6.32853511,43.104138 6.78112438,43.2654485 7.22728482,43.4826715 L7.22728482,45.3335654 C6.79269626,45.05079 6.35360753,44.8387084 5.91516168,44.6998913 C5.47478718,44.5597889 5.03569845,44.4903804 4.59532395,44.4903804 C3.80007833,44.4903804 3.17326791,44.7056754 2.71746424,45.1388359 C2.26101768,45.5719965 2.03215151,46.165825 2.03215151,46.9261054 C2.03215151,47.6626069 2.24944579,48.251294 2.68660588,48.6902386 C3.12119443,49.1298259 3.70814613,49.3496196 4.44553234,49.3496196 C4.91805096,49.3496196 5.39378399,49.266715 5.87080279,49.0989777 C6.34846447,48.9325258 6.82355462,48.6838119 7.29671613,48.3573348 L7.29671613,50.199874 Z" id="Fill-30"></path>
                </g>
            </g>
        </g>
    </g>
</svg>