<?xml version="1.0" encoding="UTF-8" standalone="no"?>
<svg width="638px" height="70px" viewBox="0 0 638 70" version="1.1" xmlns="http://www.w3.org/2000/svg" xmlns:xlink="http://www.w3.org/1999/xlink">
    <!-- Generator: Sketch 3.6.1 (26313) - http://www.bohemiancoding.com/sketch -->
    <title>最好用的在线行情系统</title>
    <desc>Created with Sketch.</desc>
    <defs>
        <linearGradient x1="31.7639803%" y1="122.683377%" x2="31.7639798%" y2="0%" id="linearGradient-1">
            <stop stop-color="#219AFF" offset="0%"></stop>
            <stop stop-color="#1ADDFF" offset="100%"></stop>
        </linearGradient>
        <linearGradient x1="50%" y1="0%" x2="50%" y2="100%" id="linearGradient-2">
            <stop stop-color="#FFFFFF" stop-opacity="0.63635077" offset="0%"></stop>
            <stop stop-color="#000000" stop-opacity="0" offset="100%"></stop>
        </linearGradient>
        <filter x="-50%" y="-50%" width="200%" height="200%" filterUnits="objectBoundingBox" id="filter-3">
            <feOffset dx="0" dy="4" in="SourceAlpha" result="shadowOffsetOuter1"></feOffset>
            <feGaussianBlur stdDeviation="3" in="shadowOffsetOuter1" result="shadowBlurOuter1"></feGaussianBlur>
            <feColorMatrix values="0 0 0 0 0   0 0 0 0 0   0 0 0 0 0  0 0 0 0.21 0" in="shadowBlurOuter1" type="matrix" result="shadowMatrixOuter1"></feColorMatrix>
            <feMerge>
                <feMergeNode in="shadowMatrixOuter1"></feMergeNode>
                <feMergeNode in="SourceGraphic"></feMergeNode>
            </feMerge>
        </filter>
        <path d="M23.92,6.76 L43.42,6.76 C43.7400016,6.1999972 44.1399976,5.5500037 44.62,4.81 C45.1000024,4.0699963 45.3899995,3.6700003 45.49,3.61 C45.5900005,3.5499997 45.6999994,3.52 45.82,3.52 C46.2600022,3.52 47.379991,3.9799954 49.18,4.9 L52.72,6.76 C53.2800028,7.0400014 53.56,7.3699981 53.56,7.75 C53.56,8.1300019 52.960006,8.5399978 51.76,8.98 L51.76,16.06 L51.88,21.58 C51.88,21.980002 51.7400014,22.2999988 51.46,22.54 C51.1799986,22.7800012 50.5100053,23.0499985 49.45,23.35 C48.3899947,23.6500015 47.2900057,23.8 46.15,23.8 C45.0099943,23.8 44.3500009,23.700001 44.17,23.5 C43.9899991,23.299999 43.9,22.8400036 43.9,22.12 L22.48,22.12 C22.3999996,22.6400026 22.1700019,22.999999 21.79,23.2 C21.4099981,23.400001 20.8700035,23.5699993 20.17,23.71 C19.4699965,23.8500007 18.7000042,23.92 17.86,23.92 C17.0199958,23.92 16.4300017,23.8800004 16.09,23.8 C15.7499983,23.7199996 15.58,23.5600012 15.58,23.32 C15.58,23.0799988 15.5899999,22.6400032 15.61,22 C15.6300001,21.3599968 15.64,20.04001 15.64,18.04 L15.64,9.22 C15.64,7.4599912 15.5800006,5.7200086 15.46,4 C18.3000142,4.7600038 21.119986,5.6799946 23.92,6.76 L23.92,6.76 Z M22.48,13.3 L43.9,13.3 L43.9,8.74 L23.92,8.74 C23.5999984,9.0200014 23.1200032,9.2799988 22.48,9.52 L22.48,13.3 Z M43.9,15.28 L22.48,15.28 L22.48,20.14 L43.9,20.14 L43.9,15.28 Z M45.34,50.98 C41.6599816,53.980015 37.6400218,56.1399934 33.28,57.46 C33.2399998,58.1400034 32.620006,58.6299985 31.42,58.93 C30.219994,59.2300015 29.2400038,59.38 28.48,59.38 C27.7199962,59.38 27.1900015,59.3100007 26.89,59.17 C26.5899985,59.0299993 26.44,58.760002 26.44,58.36 L26.44,49.06 C20.5599706,51.1800106 15.1800244,53.23999 10.3,55.24 C10.099999,55.3200004 9.9400006,55.36 9.82,55.36 C9.6999994,55.36 9.5700007,55.2800008 9.43,55.12 C9.2899993,54.9599992 8.9100031,54.0900079 8.29,52.51 C7.6699969,50.9299921 7.1400022,49.2600088 6.7,47.5 C8.4600088,47.5 10.4799886,47.400001 12.76,47.2 L12.76,28.3 L9.28,28.3 C8.479996,28.3 7.7600032,28.5199978 7.12,28.96 L5.56,26.14 C6.5200048,26.2600006 7.5199948,26.32 8.56,26.32 L51.34,26.32 C51.8600026,25.3999954 52.4499967,24.4300051 53.11,23.41 C53.7700033,22.3899949 54.1899991,21.7700011 54.37,21.55 C54.5500009,21.3299989 54.7599988,21.22 55,21.22 C55.5600028,21.22 56.9199892,22.1299909 59.08,23.95 C61.2400108,25.7700091 62.32,27.0199966 62.32,27.7 C62.32,28.100002 61.9800034,28.3 61.3,28.3 L34.3,28.3 C34.1399992,28.8600028 33.760003,29.2799986 33.16,29.56 L33.16,44.86 C35.6000122,44.5399984 37.0499977,44.38 37.51,44.38 C37.9700023,44.38 38.2,44.4399994 38.2,44.56 C38.2,44.6800006 37.800004,44.8799986 37,45.16 L33.16,46.6 L33.16,51.52 C33.16,54.120013 33.1999996,55.9599946 33.28,57.04 C36.880018,54.7599886 40.0399864,51.720019 42.76,47.92 C40.1999872,44.2799818 38.6800024,39.860026 38.2,34.66 C37.4799964,34.7400004 36.820003,34.9599982 36.22,35.32 L34.66,32.5 C35.6200048,32.6200006 36.6199948,32.68 37.66,32.68 L48.04,32.68 C48.8800042,31.3599934 49.399999,30.5300017 49.6,30.19 C49.800001,29.8499983 50.0799982,29.68 50.44,29.68 C50.8000018,29.68 51.8299915,30.1099957 53.53,30.97 C55.2300085,31.8300043 56.4199966,32.4799978 57.1,32.92 C57.7800034,33.3600022 58.12,33.779998 58.12,34.18 C58.12,34.6200022 57.8400028,34.8699997 57.28,34.93 C56.7199972,34.9900003 56.3000014,35.2499977 56.02,35.71 C55.7399986,36.1700023 55.0500055,37.5799882 53.95,39.94 C52.8499945,42.3000118 51.4600084,44.4999898 49.78,46.54 C52.8600154,48.0600076 56.8199758,49.3799944 61.66,50.5 C62.260003,50.6200006 62.56,50.7699991 62.56,50.95 C62.56,51.1300009 62.3000026,51.3399988 61.78,51.58 C59.1399868,52.8200062 57.3800044,54.739987 56.5,57.34 C56.3399992,57.8200024 56.0200024,58.06 55.54,58.06 C54.9799972,58.06 53.4600124,57.2100085 50.98,55.51 C48.4999876,53.8099915 46.6200064,52.3000066 45.34,50.98 L45.34,50.98 Z M26.44,28.3 L20.38,28.3 C20.1399988,28.7400022 19.7400028,29.0799988 19.18,29.32 L19.18,32.68 L26.44,32.68 L26.44,28.3 Z M26.44,34.66 L19.18,34.66 L19.18,39.34 L26.44,39.34 L26.44,34.66 Z M45.34,43.6 C46.7800072,40.7599858 47.7399976,37.7800156 48.22,34.66 L39.34,34.66 C40.4600056,38.3000182 42.4599856,41.2799884 45.34,43.6 L45.34,43.6 Z M19.18,46.54 C20.5000066,46.339999 22.9199824,46.0600018 26.44,45.7 L26.44,41.32 L19.18,41.32 L19.18,46.54 Z M89.6499999,39.7 C93.8500209,41.8600108 95.9499999,44.4799846 95.9499999,47.56 C95.9499999,48.9200068 95.5300041,50.0899951 94.6899999,51.07 C93.8499957,52.0500049 92.920005,52.54 91.8999999,52.54 C90.8799948,52.54 90.060003,52.240003 89.4399999,51.64 C88.8199968,51.039997 88.4400006,50.1800056 88.2999999,49.06 C88.1599992,47.9399944 87.3500073,46.6000078 85.8699999,45.04 C83.2299867,47.9600146 80.000019,50.4799894 76.1799999,52.6 C72.3599808,54.7200106 70.1900025,55.78 69.6699999,55.78 C69.5899995,55.78 69.5499999,55.7400004 69.5499999,55.66 C69.5499999,55.4999992 69.9499959,55.1000032 70.7499999,54.46 C73.9500159,52.059988 76.4199912,49.8800098 78.1599999,47.92 C79.9000086,45.9599902 81.3099945,43.9600102 82.3899999,41.92 C79.5099855,39.7999894 76.2900177,38.2000054 72.7299999,37.12 C73.7700051,32.9599792 74.8899939,27.2400364 76.0899999,19.96 L73.2699999,19.96 C72.1899945,19.96 71.3500029,20.0999986 70.7499999,20.38 L69.6699999,17.68 C70.5100041,17.880001 71.5099941,17.98 72.6699999,17.98 L76.4499999,17.98 C77.4500049,11.6199682 78.1299981,6.3600208 78.4899999,2.2 C79.6100055,2.3600008 81.3199884,2.7099973 83.6199999,3.25 C85.9200114,3.7900027 87.2299983,4.159999 87.5499999,4.36 C87.8700015,4.560001 88.0299999,4.7799988 88.0299999,5.02 C88.0299999,5.420002 87.7900023,5.6599996 87.3099999,5.74 C86.8299975,5.8200004 86.5100007,5.9999986 86.3499999,6.28 C86.1899991,6.5600014 85.8100029,8.0399866 85.2099999,10.72 L83.4699999,17.98 L86.8899999,17.98 C87.6100035,16.779994 88.0699989,16.0100017 88.2699999,15.67 C88.4700009,15.3299983 88.7099985,15.16 88.9899999,15.16 C89.5100025,15.16 90.8699889,15.7399942 93.0699999,16.9 C95.2700109,18.0600058 96.5299983,18.7699987 96.8499999,19.03 C97.1700015,19.2900013 97.3299999,19.5899983 97.3299999,19.93 C97.3299999,20.2700017 97.0300029,20.5099993 96.4299999,20.65 C95.8299969,20.7900007 95.4300009,21.0199984 95.2299999,21.34 C95.0299989,21.6600016 94.8500007,22.2399958 94.6899999,23.08 C93.6099945,30.080035 91.9300113,35.6199796 89.6499999,39.7 L89.6499999,39.7 Z M82.9899999,19.96 L79.2099999,36.34 C81.4100109,36.8200024 83.1299937,37.259998 84.3699999,37.66 C86.2100091,32.9399764 87.3499977,27.0400354 87.7899999,19.96 L82.9899999,19.96 Z M109.39,18.28 C110.550006,15.9999886 111.669995,13.1800168 112.75,9.82 L97.2699999,9.82 C96.4699959,9.82 95.7500031,10.0399978 95.1099999,10.48 L93.5499999,7.66 C94.5100047,7.7800006 95.5099947,7.84 96.5499999,7.84 L112.03,7.84 C112.350002,7.3599976 112.929996,6.420007 113.77,5.02 C114.210002,4.2599962 114.629998,3.88 115.03,3.88 C115.270001,3.88 115.949994,4.2599962 117.07,5.02 C118.190006,5.7800038 119.589992,6.8299933 121.27,8.17 C122.950008,9.5100067 123.949998,10.3899979 124.27,10.81 C124.590002,11.2300021 124.75,11.6099983 124.75,11.95 C124.75,12.2900017 124.590002,12.6099985 124.27,12.91 C123.949998,13.2100015 123.250005,13.36 122.17,13.36 L121.51,13.36 C119.909992,13.36 118.310008,13.8099955 116.71,14.71 C115.109992,15.6100045 113.31001,16.8999916 111.31,18.58 C113.870013,18.9000016 115.15,19.4199964 115.15,20.14 C115.15,20.5800022 114.670005,20.9799982 113.71,21.34 L113.71,27.88 L115.69,27.88 C117.170007,25.5199882 118.069998,24.1100023 118.39,23.65 C118.710002,23.1899977 119.059998,22.96 119.44,22.96 C119.820002,22.96 120.569994,23.4799948 121.69,24.52 L124.81,27.34 C125.810005,28.2600046 126.31,28.9099981 126.31,29.29 C126.31,29.6700019 125.910004,29.86 125.11,29.86 L113.71,29.86 L113.71,50.26 C113.71,52.1000092 113.490002,53.4299959 113.05,54.25 C112.609998,55.0700041 111.920005,55.7499973 110.98,56.29 C110.039995,56.8300027 108.820007,57.299998 107.32,57.7 C105.819992,58.100002 104.890002,58.3 104.53,58.3 C103.729996,58.3 103.31,57.8600044 103.27,56.98 C103.19,55.4999926 102.760004,54.3800038 101.98,53.62 C101.199996,52.8599962 99.5900121,52.1400034 97.1499999,51.46 C96.6299973,51.3399994 96.3699999,51.1700011 96.3699999,50.95 C96.3699999,50.7299989 96.6699969,50.62 97.2699999,50.62 L100.63,50.68 C102.310008,50.68 103.549996,50.5700011 104.35,50.35 C105.150004,50.1299989 105.679999,49.7500027 105.94,49.21 C106.200001,48.6699973 106.33,47.8800052 106.33,46.84 L106.33,29.86 L97.9899999,29.86 C97.1899959,29.86 96.4700031,30.0799978 95.8299999,30.52 L94.2699999,27.7 C95.2300047,27.8200006 96.2299947,27.88 97.2699999,27.88 L106.33,27.88 L106.33,23.08 C106.33,21.679993 106.29,19.9000108 106.21,17.74 C107.210005,17.8600006 108.269994,18.0399988 109.39,18.28 L109.39,18.28 Z M151.36,7.72 L175.42,7.72 C176.780007,5.119987 177.739997,3.82 178.3,3.82 C178.700002,3.82 180.109988,4.7499907 182.53,6.61 C184.950012,8.4700093 186.16,9.699997 186.16,10.3 C186.16,10.8200026 185.380008,11.3399974 183.82,11.86 L183.82,49.12 C183.82,51.6800128 183.530003,53.4199954 182.95,54.34 C182.369997,55.2600046 181.210009,56.0299969 179.47,56.65 C177.729991,57.2700031 176.540003,57.58 175.9,57.58 C175.019995,57.58 174.54,57.0600052 174.46,56.02 C174.339999,54.3399916 173.840004,53.1400036 172.96,52.42 C172.079995,51.6999964 170.720009,51.1600018 168.88,50.8 C168.159996,50.6399992 167.8,50.4800008 167.8,50.32 C167.8,50.1599992 168.589992,50.0700001 170.17,50.05 C171.750008,50.0299999 173.179993,49.9000012 174.46,49.66 C175.740006,49.4199988 176.38,48.900004 176.38,48.1 L176.38,35.26 L166.78,35.26 L166.78,45.04 L166.84,51.22 C166.84,51.7400026 166.710001,52.1599984 166.45,52.48 C166.189999,52.8000016 165.550005,53.1199984 164.53,53.44 C163.509995,53.7600016 162.370006,53.92 161.11,53.92 C159.849994,53.92 159.22,53.3800054 159.22,52.3 L159.34,49.78 C159.38,48.0999916 159.4,46.5200074 159.4,45.04 L159.4,35.26 L150.16,35.26 C149.759998,39.6200218 148.810007,43.199986 147.31,46 C145.809992,48.800014 143.410016,51.5599864 140.11,54.28 C136.809983,57.0000136 134.900002,58.36 134.38,58.36 C134.259999,58.36 134.2,58.2900007 134.2,58.15 C134.2,58.0099993 134.399998,57.740002 134.8,57.34 C137.480013,54.6599866 139.449994,51.7400158 140.71,48.58 C141.970006,45.4199842 142.789998,41.8800196 143.17,37.96 C143.550002,34.0399804 143.74,29.3000278 143.74,23.74 C143.74,18.1799722 143.660001,11.8800352 143.5,4.84 C146.460015,5.6800042 149.079988,6.6399946 151.36,7.72 L151.36,7.72 Z M150.82,20.32 L159.4,20.32 L159.4,9.7 L151.42,9.7 C151.019998,9.900001 150.82,10.799992 150.82,12.4 L150.82,20.32 Z M166.78,20.32 L176.38,20.32 L176.38,9.7 L167.86,9.7 C167.94,10.100002 167.580004,10.5799972 166.78,11.14 L166.78,20.32 Z M159.4,22.3 L150.76,22.3 C150.72,26.9400232 150.580001,30.5999866 150.34,33.28 L159.4,33.28 L159.4,22.3 Z M176.38,22.3 L166.78,22.3 L166.78,33.28 L176.38,33.28 L176.38,22.3 Z M226.75,26.32 C226.429998,26.4800008 225.690006,27.1399942 224.53,28.3 C223.369994,29.4600058 222.73,30.04 222.61,30.04 C222.489999,30.04 222.43,29.9700007 222.43,29.83 C222.43,29.6899993 222.549999,29.4000022 222.79,28.96 C226.270017,22.5999682 228.389996,13.820056 229.15,2.62 C231.470011,3.1400026 233.61999,3.7199968 235.6,4.36 C237.58001,5.0000032 238.719998,5.4299989 239.02,5.65 C239.320001,5.8700011 239.47,6.1299985 239.47,6.43 C239.47,6.7300015 239.080004,6.979999 238.3,7.18 C237.519996,7.380001 236.950002,7.8999958 236.59,8.74 L233.23,16.12 L242.05,16.12 C243.170005,13.719988 244.069996,12.52 244.75,12.52 C245.190002,12.52 246.149992,12.9999952 247.63,13.96 C249.110007,14.9200048 250.329995,15.7599964 251.29,16.48 C252.250005,17.2000036 252.73,17.8299973 252.73,18.37 C252.73,18.9100027 251.850009,19.3999978 250.09,19.84 C250.05,25.8000298 249.900001,32.0299675 249.64,38.53 C249.379998,45.0300325 249.040002,49.2099907 248.62,51.07 C248.199998,52.9300093 247.430005,54.3499951 246.31,55.33 C245.189994,56.3100049 243.750009,56.9299987 241.99,57.19 C240.229991,57.4500013 238.960004,57.58 238.18,57.58 C237.399996,57.58 236.890001,57.4700011 236.65,57.25 C236.409999,57.0299989 236.24,56.4000052 236.14,55.36 C236.039999,54.3199948 235.510005,53.400004 234.55,52.6 C233.589995,51.799996 232.13001,51.1600024 230.17,50.68 C229.409996,50.479999 229.03,50.3100007 229.03,50.17 C229.03,50.0299993 229.329997,49.96 229.93,49.96 L234.19,50.02 C236.630012,50.02 238.369995,49.8400018 239.41,49.48 C240.450005,49.1199982 241.159998,48.3800056 241.54,47.26 C241.920002,46.1399944 242.249998,42.7300285 242.53,37.03 C242.810001,31.3299715 242.95,25.0200346 242.95,18.1 L232.21,18.1 C230.529991,21.100015 228.750009,23.6799892 226.87,25.84 C230.510018,26.840005 233.249991,28.0199932 235.09,29.38 C236.930009,30.7400068 237.85,32.2599916 237.85,33.94 C237.85,35.6200084 237.440004,36.9199954 236.62,37.84 C235.799996,38.7600046 234.750006,39.22 233.47,39.22 C232.189993,39.22 231.350002,38.9500027 230.95,38.41 C230.549998,37.8699973 230.35,36.6800092 230.35,34.84 C230.35,30.5599786 229.150012,27.720007 226.75,26.32 L226.75,26.32 Z M206.77,16.3 C207.010001,13.8599878 207.13,11.6100103 207.13,9.55 C207.13,7.4899897 207.050001,5.3400112 206.89,3.1 C208.93001,3.300001 210.91999,3.5599984 212.86,3.88 C214.800009,4.2000016 216.009997,4.459999 216.49,4.66 C216.970002,4.860001 217.21,5.0899987 217.21,5.35 C217.21,5.6100013 216.870003,5.8899985 216.19,6.19 C215.509996,6.4900015 214.780004,7.239994 214,8.44 C213.219996,9.640006 211.83001,12.2599798 209.83,16.3 L214.99,16.3 C215.510002,15.1799944 215.969998,14.3600026 216.37,13.84 C216.770002,13.3199974 217.179998,13.06 217.6,13.06 C218.020002,13.06 219.259989,13.7199934 221.32,15.04 C223.38001,16.3600066 224.41,17.2899973 224.41,17.83 C224.41,18.3700027 223.670007,18.8199982 222.19,19.18 L222.19,44.8 C222.19,46.6800094 222.21,47.9999962 222.25,48.76 L222.31,50.8 C222.31,51.3200026 222.140001,51.6999988 221.8,51.94 C221.459998,52.1800012 220.820004,52.4599984 219.88,52.78 C218.939995,53.1000016 217.850006,53.26 216.61,53.26 C215.929996,53.26 215.59,52.8000046 215.59,51.88 L215.59,49 L206.05,49 L206.05,52.6 C206.05,53.0400022 205.910001,53.3899987 205.63,53.65 C205.349998,53.9100013 204.710005,54.1599988 203.71,54.4 C202.709995,54.6400012 201.770004,54.76 200.89,54.76 C200.009995,54.76 199.52,54.7000006 199.42,54.58 C199.319999,54.4599994 199.27,54.2400016 199.27,53.92 L199.39,51.1 C199.47,49.1399902 199.51,47.360008 199.51,45.76 L199.51,20.32 C199.51,17.8799878 199.47,15.8000086 199.39,14.08 C201.590011,14.6000026 203.929987,15.3399952 206.41,16.3 L206.77,16.3 Z M206.05,30.46 L215.59,30.46 L215.59,18.28 L207.25,18.28 C207.089999,19.1600044 206.690003,19.7399986 206.05,20.02 L206.05,30.46 Z M215.59,32.44 L206.05,32.44 L206.05,47.02 L215.59,47.02 L215.59,32.44 Z M291.04,35.02 L282.58,35.02 C281.779996,35.02 281.060003,35.2399978 280.42,35.68 L278.86,32.86 C279.820004,32.9800006 280.819994,33.04 281.86,33.04 L291.04,33.04 L291.04,25.12 C291.04,23.11999 291,21.3400078 290.92,19.78 C292.520008,19.78 294.419989,19.879999 296.62,20.08 C298.820011,20.280001 299.92,20.6399974 299.92,21.16 C299.92,21.5200018 299.420005,21.9799972 298.42,22.54 L298.42,33.04 L303.1,33.04 C304.780008,29.9199844 305.999996,28.36 306.76,28.36 C307.240002,28.36 308.39999,29.1999916 310.24,30.88 C312.080009,32.5600084 313,33.6699973 313,34.21 C313,34.7500027 312.580004,35.02 311.74,35.02 L298.42,35.02 L298.42,51.88 L305.56,51.88 C307.400009,48.5199832 308.659996,46.84 309.34,46.84 C309.580001,46.84 310.079996,47.0699977 310.84,47.53 C311.600003,47.9900023 312.629993,48.7699945 313.93,49.87 C315.230006,50.9700055 316.019998,51.6899983 316.3,52.03 C316.580001,52.3700017 316.72,52.6799986 316.72,52.96 C316.72,53.560003 316.340003,53.86 315.58,53.86 L278.8,53.86 L278.8,57.04 C278.8,57.4000018 278.75,57.6399994 278.65,57.76 C278.549999,57.8800006 278.150003,58.0299991 277.45,58.21 C276.749996,58.3900009 275.680007,58.579999 274.24,58.78 C272.799992,58.980001 271.920001,59.08 271.6,59.08 C271.279998,59.08 271.12,58.880002 271.12,58.48 L271.18,56.02 C271.26,54.3399916 271.3,52.50001 271.3,50.5 L271.3,35.2 C269.019988,37.20001 266.680012,39.0599914 264.28,40.78 C261.879988,42.5000086 260.550001,43.4299993 260.29,43.57 C260.029998,43.7100007 259.84,43.78 259.72,43.78 C259.599999,43.78 259.54,43.6900009 259.54,43.51 C259.54,43.3299991 259.739998,43.040002 260.14,42.64 C264.500021,38.5199794 268.219984,34.160023 271.3,29.56 C271.3,26.7199858 271.26,24.3800092 271.18,22.54 C272.820008,22.8200014 274.079995,23.0999986 274.96,23.38 C276.080005,21.179989 277.099995,18.8600122 278.02,16.42 L264.52,16.42 C263.719996,16.42 263.000003,16.6399978 262.36,17.08 L260.8,14.26 C261.760004,14.3800006 262.759994,14.44 263.8,14.44 L278.68,14.44 C279.960006,10.43998 280.779998,6.44002 281.14,2.44 C282.660007,2.840002 284.549988,3.3999964 286.81,4.12 C289.070011,4.8400036 290.379998,5.3199988 290.74,5.56 C291.100001,5.8000012 291.28,6.0599986 291.28,6.34 C291.28,6.6200014 290.960003,6.859999 290.32,7.06 C289.679996,7.260001 289.120002,7.7999956 288.64,8.68 C288.159997,9.5600044 287.360005,11.4799852 286.24,14.44 L304.3,14.44 C305.180004,12.5599906 305.859997,11.220004 306.34,10.42 C306.820002,9.619996 307.239998,9.22 307.6,9.22 C308.120002,9.22 309.549988,10.0699915 311.89,11.77 C314.230011,13.4700085 315.4,14.6699965 315.4,15.37 C315.4,16.0700035 314.880005,16.42 313.84,16.42 L285.34,16.42 C283.49999,20.3400196 281.320012,23.9199838 278.8,27.16 L278.8,51.88 L291.04,51.88 L291.04,35.02 Z M359.17,5.08 C359.770003,5.0399998 360.369997,5.02 360.97,5.02 C363.770014,5.02 366.009991,5.4499957 367.69,6.31 C369.370008,7.1700043 370.21,8.299993 370.21,9.7 C370.21,10.5400042 369.910003,11.359996 369.31,12.16 C371.110009,13.160005 372.499995,14.0299963 373.48,14.77 C374.460005,15.5100037 374.95,16.1599972 374.95,16.72 C374.95,17.2800028 374.370005,17.6799988 373.21,17.92 L358.15,20.86 C358.31,23.7800146 358.469999,25.939993 358.63,27.34 L367.03,25.48 C367.590002,23.9599924 368.089997,22.6800052 368.53,21.64 C368.970002,20.5999948 369.279999,19.9700011 369.46,19.75 C369.640001,19.5299989 369.829999,19.42 370.03,19.42 C370.510002,19.42 371.579991,19.9299949 373.24,20.95 C374.900008,21.9700051 376.109996,22.7499973 376.87,23.29 C377.630003,23.8300027 378.01,24.3699973 378.01,24.91 C378.01,25.4500027 377.530004,25.819999 376.57,26.02 L358.93,29.68 C359.530003,33.5200192 360.329995,36.6799876 361.33,39.16 C364.010013,35.959984 365.909994,32.6000176 367.03,29.08 C369.790013,30.1600054 371.909992,31.0399966 373.39,31.72 C374.870007,32.4000034 375.699999,32.8199992 375.88,32.98 C376.060001,33.1400008 376.15,33.2999992 376.15,33.46 C376.15,33.8200018 375.720004,34.1199988 374.86,34.36 C373.999995,34.6000012 373.090004,35.319994 372.13,36.52 C369.529987,39.8000164 367.010012,42.4799896 364.57,44.56 C365.450004,45.560005 366.519993,46.4399962 367.78,47.2 C369.040006,47.9600038 369.939997,48.34 370.48,48.34 C371.020002,48.34 371.469998,48.2200012 371.83,47.98 C372.190001,47.7399988 372.719996,46.9100071 373.42,45.49 C374.120003,44.0699929 374.789996,42.6000076 375.43,41.08 C376.070003,39.5599924 376.479999,38.8 376.66,38.8 C376.840001,38.8 376.93,38.9399986 376.93,39.22 C376.93,39.5000014 376.89,39.7999984 376.81,40.12 C376.089996,42.8800138 375.73,45.3099895 375.73,47.41 C375.73,49.5100105 376.489992,51.55999 378.01,53.56 C378.370001,54.0800026 378.55,54.6799966 378.55,55.36 C378.55,56.0400034 378.190003,56.6499973 377.47,57.19 C376.749996,57.7300027 375.730006,58 374.41,58 C372.089988,58 369.470014,57.200008 366.55,55.6 C363.629985,53.999992 361.050011,51.700015 358.81,48.7 C355.409983,50.7800104 350.980027,52.619992 345.52,54.22 C340.059972,55.820008 336.970003,56.62 336.25,56.62 C335.849998,56.62 335.65,56.5000012 335.65,56.26 C335.65,56.0199988 336.069995,55.7400016 336.91,55.42 C344.750039,52.2599842 351.169975,48.580021 356.17,44.38 C354.609992,41.0599834 353.370004,36.6200278 352.45,31.06 L345.91,32.38 C345.189996,32.4200002 344.490003,32.739997 343.81,33.34 L341.95,30.46 C342.430002,30.5000002 342.909997,30.52 343.39,30.52 C343.870002,30.52 344.389997,30.4600006 344.95,30.34 L352.09,28.78 C351.729998,26.3399878 351.450001,24.1400098 351.25,22.18 L347.65,22.9 C346.849996,23.0200006 346.150003,23.3399974 345.55,23.86 L344.47,22.18 C340.54998,26.9400238 336.57002,31.5399778 332.53,35.98 L346.51,35.5 C347.430004,35.5 347.89,35.6299987 347.89,35.89 C347.89,36.1500013 347.370005,36.4199986 346.33,36.7 C341.529976,38.0600068 337.880012,39.1899955 335.38,40.09 C332.879987,40.9900045 330.390012,42.0599938 327.91,43.3 C327.549998,43.500001 327.230001,43.6 326.95,43.6 C326.669998,43.6 326.48,43.5300007 326.38,43.39 C326.279999,43.2499993 325.880003,42.080011 325.18,39.88 C324.479996,37.679989 324.13,36.3400024 324.13,35.86 C324.13,35.3799976 324.529996,35.1200002 325.33,35.08 C326.610006,35.0399998 327.829994,34.720003 328.99,34.12 C330.150005,33.519997 331.109996,32.620006 331.87,31.42 C332.630003,30.219994 333.809992,28.0800154 335.41,25 C331.929982,26.1200056 329.030011,27.4199926 326.71,28.9 C326.349998,29.1400012 326.050001,29.26 325.81,29.26 C325.569998,29.26 325.38,29.1500011 325.24,28.93 C325.099999,28.7099989 324.660003,27.60001 323.92,25.6 C323.179996,23.59999 322.81,22.400002 322.81,22 C322.81,21.3599968 323.149996,21.0000004 323.83,20.92 C324.510003,20.8399996 325.139997,20.6400016 325.72,20.32 C326.300003,19.9999984 326.749998,19.6200022 327.07,19.18 C327.390001,18.7399978 327.939996,17.4600106 328.72,15.34 C329.500004,13.2199894 330.119997,11.2700089 330.58,9.49 C331.040002,7.7099911 331.469998,5.6800114 331.87,3.4 C334.230011,4.2800044 336.35999,5.1499957 338.26,6.01 C340.160009,6.8700043 341.209999,7.3899991 341.41,7.57 C341.610001,7.7500009 341.71,7.939999 341.71,8.14 C341.71,8.540002 341.290004,8.8199992 340.45,8.98 C340.089998,9.0600004 339.710002,9.2799982 339.31,9.64 C338.909998,10.0000018 337.560011,11.6199856 335.26,14.5 C332.959988,17.3800144 330.830009,19.9999882 328.87,22.36 L336.61,22.42 C338.050007,19.2599842 339.249995,16.3000138 340.21,13.54 C341.570006,14.140003 343.24999,14.9599948 345.25,16 C347.25001,17.0400052 348.349999,17.6699989 348.55,17.89 C348.750001,18.1100011 348.85,18.319999 348.85,18.52 C348.85,18.920002 348.560003,19.1999992 347.98,19.36 C347.399997,19.5200008 346.590005,20.0799952 345.55,21.04 L351.07,20.02 L349.87,2.56 C351.630008,2.6400004 353.49999,2.8199986 355.48,3.1 C357.46001,3.3800014 358.629998,3.5999992 358.99,3.76 C359.350001,3.9200008 359.53,4.1099989 359.53,4.33 C359.53,4.5500011 359.410001,4.7999986 359.17,5.08 L359.17,5.08 Z M365.71,14.2 C364.349993,13.8399982 363.490001,13.1000056 363.13,11.98 C362.489996,9.97999 361.850003,8.6200036 361.21,7.9 C360.569996,7.1799964 359.610006,6.520003 358.33,5.92 C358.249999,5.9600002 358.13,6.0599992 357.97,6.22 C357.929999,7.9000084 357.91,9.7499899 357.91,11.77 C357.91,13.7900101 357.949999,16.0799872 358.03,18.64 L364.57,17.38 C364.970002,16.179994 365.349998,15.1200046 365.71,14.2 L365.71,14.2 Z M323.05,47.8 C327.810023,47.3599978 332.429977,46.7000044 336.91,45.82 L347.29,43.84 C347.650001,43.84 347.83,43.9499989 347.83,44.17 C347.83,44.3900011 347.610002,44.599999 347.17,44.8 C337.369951,49.4800234 330.630018,53.019988 326.95,55.42 C326.589998,55.620001 326.33,55.72 326.17,55.72 C326.009999,55.72 325.88,55.6600006 325.78,55.54 C325.679999,55.4199994 325.320003,54.560008 324.7,52.96 C324.079997,51.359992 323.530002,49.6400092 323.05,47.8 L323.05,47.8 Z M401.56,2.44 C403.72001,3.4800052 405.589992,4.4699953 407.17,5.41 C408.750007,6.3500047 409.659998,6.9499987 409.9,7.21 C410.140001,7.4700013 410.26,7.7199988 410.26,7.96 C410.26,8.360002 409.940003,8.6199994 409.3,8.74 C408.099994,8.9000008 406.680008,9.6599932 405.04,11.02 C402.759988,12.9000094 399.55002,14.9699887 395.41,17.23 C391.269979,19.4900113 388.900003,20.62 388.3,20.62 C388.139999,20.62 388.06,20.5400008 388.06,20.38 C388.06,20.2199992 388.319997,19.9000024 388.84,19.42 C392.480018,16.0999834 395.169991,13.2100123 396.91,10.75 C398.650008,8.2899877 400.199993,5.5200154 401.56,2.44 L401.56,2.44 Z M428.86,9.46 C429.660004,7.9399924 430.379996,6.7400044 431.02,5.86 C431.660003,4.9799956 432.119998,4.54 432.4,4.54 C432.840002,4.54 434.179988,5.4899905 436.42,7.39 C438.660011,9.2900095 439.78,10.439998 439.78,10.84 C439.78,11.240002 439.380004,11.44 438.58,11.44 L416.92,11.44 C416.119996,11.44 415.400003,11.6599978 414.76,12.1 L413.2,9.28 C414.160004,9.4000006 415.159994,9.46 416.2,9.46 L428.86,9.46 Z M396.28,33.22 C394.31999,34.620007 392.390009,35.8899943 390.49,37.03 C388.58999,38.1700057 387.540001,38.7899995 387.34,38.89 C387.139999,38.9900005 386.99,39.04 386.89,39.04 C386.789999,39.04 386.74,38.9700007 386.74,38.83 C386.74,38.6899993 386.939998,38.4000022 387.34,37.96 C391.50002,33.3199768 394.629989,29.3500165 396.73,26.05 C398.83001,22.7499835 400.739991,19.0200208 402.46,14.86 C403.740006,15.3400024 405.449989,16.279993 407.59,17.68 C409.73001,19.080007 410.859999,19.8499993 410.98,19.99 C411.1,20.1300007 411.16,20.3199988 411.16,20.56 C411.16,20.8000012 410.860003,21.019999 410.26,21.22 C408.779992,21.6600022 407.790002,22.2399964 407.29,22.96 C406.789997,23.6800036 405.46001,25.139989 403.3,27.34 C404.420005,27.7000018 404.98,28.0699981 404.98,28.45 C404.98,28.8300019 404.560004,29.219998 403.72,29.62 L403.72,56.08 C403.72,56.4400018 403.620001,56.7299989 403.42,56.95 C403.219999,57.1700011 402.230008,57.4899979 400.45,57.91 C398.669991,58.3300021 397.340004,58.54 396.46,58.54 C396.179998,58.54 396.04,58.340002 396.04,57.94 L396.22,52.3 C396.26,50.5399912 396.28,48.8800078 396.28,47.32 L396.28,33.22 Z M423.94,26.02 L411.34,26.02 C410.539996,26.02 409.820003,26.2399978 409.18,26.68 L407.62,23.86 C408.580004,23.9800006 409.579994,24.04 410.62,24.04 L432.7,24.04 C433.980006,21.9599896 434.819998,20.6500027 435.22,20.11 C435.620002,19.5699973 435.959998,19.3 436.24,19.3 C436.760002,19.3 438.109989,20.199991 440.29,22 C442.47001,23.800009 443.56,24.9199978 443.56,25.36 C443.56,25.8000022 443.160004,26.02 442.36,26.02 L432.7,26.02 C432.659999,26.3800018 432.460001,26.7999976 432.1,27.28 L432.1,51.88 C432.1,53.8400098 431.880002,55.2799954 431.44,56.2 C430.999997,57.1200046 429.960008,57.7999978 428.32,58.24 C426.679991,58.6800022 424.440014,58.9 421.6,58.9 C420.999997,58.9 420.490002,58.7300017 420.07,58.39 C419.649997,58.0499983 419.44,57.6400024 419.44,57.16 C419.44,55.759993 419.060003,54.7300033 418.3,54.07 C417.539996,53.4099967 416.280008,52.9000018 414.52,52.54 C414.079997,52.4599996 413.86,52.320001 413.86,52.12 C413.86,51.919999 414.419994,51.82 415.54,51.82 C418.460014,51.82 420.589993,51.6500017 421.93,51.31 C423.270006,50.9699983 423.94,50.3600044 423.94,49.48 L423.94,26.02 Z M482.169999,12.76 L473.529999,12.76 C472.729995,12.76 472.010003,12.9799978 471.369999,13.42 L469.629999,10.6 C470.590004,10.7200006 471.589994,10.78 472.629999,10.78 L482.169999,10.78 L482.169999,7.96 C482.169999,5.95999 482.13,4.1800078 482.049999,2.62 C484.290011,2.7000004 486.169992,2.8299991 487.689999,3.01 C489.210007,3.1900009 490.129998,3.3599992 490.449999,3.52 C490.770001,3.6800008 490.929999,3.8799988 490.929999,4.12 C490.929999,4.6000024 490.350005,5.1199972 489.189999,5.68 L489.189999,10.78 L493.749999,10.78 C494.710004,8.979991 495.399997,7.8000028 495.819999,7.24 C496.240002,6.6799972 496.589998,6.4 496.869999,6.4 C497.350002,6.4 498.629989,7.2299917 500.709999,8.89 C502.79001,10.5500083 503.829999,11.6099977 503.829999,12.07 C503.829999,12.5300023 503.430003,12.76 502.629999,12.76 L489.189999,12.76 L489.189999,17.14 L492.789999,17.14 C493.150001,16.4599966 493.579997,15.7500037 494.079999,15.01 C494.580002,14.2699963 494.889999,13.8500005 495.009999,13.75 C495.13,13.6499995 495.269999,13.6 495.429999,13.6 C495.990002,13.6 497.20999,14.2799932 499.089999,15.64 C500.970009,17.0000068 501.909999,17.979997 501.909999,18.58 C501.909999,18.9400018 501.510003,19.12 500.709999,19.12 L489.189999,19.12 L489.189999,23.98 L496.149999,23.98 C496.910003,22.579993 497.559997,21.5200036 498.099999,20.8 C498.640002,20.0799964 499.049998,19.72 499.329999,19.72 C499.890002,19.72 501.179989,20.5299919 503.199999,22.15 C505.22001,23.7700081 506.229999,24.8599972 506.229999,25.42 C506.229999,25.7800018 505.830003,25.96 505.029999,25.96 L472.329999,25.96 C471.529995,25.96 470.810003,26.1799978 470.169999,26.62 L468.129999,23.8 C469.090004,23.9200006 470.089994,23.98 471.129999,23.98 L482.169999,23.98 L482.169999,19.12 L476.409999,19.12 C475.609995,19.12 474.890003,19.3399978 474.249999,19.78 L472.509999,16.96 C473.470004,17.0800006 474.469994,17.14 475.509999,17.14 L482.169999,17.14 L482.169999,12.76 Z M464.289999,14.02 C466.850012,14.4600022 468.759993,15.0899959 470.019999,15.91 C471.280006,16.7300041 471.909999,17.939992 471.909999,19.54 C471.909999,20.3800042 471.570003,21.2099959 470.889999,22.03 C470.209996,22.8500041 469.510003,23.26 468.789999,23.26 C468.069996,23.26 467.480002,23.160001 467.019999,22.96 C466.559997,22.759999 466.24,22.5100015 466.059999,22.21 C465.879999,21.9099985 465.789999,21.360004 465.789999,20.56 C465.789999,17.759986 465.290004,15.9800038 464.289999,15.22 L464.289999,55.78 C464.289999,56.1000016 464.24,56.3199994 464.139999,56.44 C464.039999,56.5600006 463.660003,56.7899983 462.999999,57.13 C462.339996,57.4700017 461.580004,57.7299991 460.719999,57.91 C459.859995,58.0900009 458.970004,58.18 458.049999,58.18 C457.729998,58.18 457.569999,57.9400024 457.569999,57.46 L457.689999,54.88 C457.73,52.9599904 457.749999,51.1800082 457.749999,49.54 L457.749999,8.32 C457.749999,6.31999 457.71,4.5400078 457.629999,2.98 C459.67001,3.1000006 461.349993,3.2799988 462.669999,3.52 C463.990006,3.7600012 464.809998,3.9599992 465.129999,4.12 C465.450001,4.2800008 465.609999,4.5099985 465.609999,4.81 C465.609999,5.1100015 465.170004,5.4999976 464.289999,5.98 L464.289999,14.02 Z M456.489999,24.94 C456.489999,26.94001 456.030004,28.4599948 455.109999,29.5 C454.189995,30.5400052 453.110006,31.06 451.869999,31.06 C451.029995,31.06 450.320002,30.7800028 449.739999,30.22 C449.159997,29.6599972 448.869999,28.8700051 448.869999,27.85 C448.869999,26.8299949 449.189996,26.0000032 449.829999,25.36 C451.95001,23.159989 453.009999,20.9800108 453.009999,18.82 C453.009999,18.0999964 452.94,17.4800026 452.799999,16.96 C452.659999,16.4399974 452.589999,16.0900009 452.589999,15.91 C452.589999,15.7299991 452.649999,15.64 452.769999,15.64 C453.090001,15.64 453.789994,16.6499899 454.869999,18.67 C455.950005,20.6900101 456.489999,22.7799892 456.489999,24.94 L456.489999,24.94 Z M479.529999,30.04 L491.469999,30.04 C492.230003,28.7599936 492.729998,27.9800014 492.969999,27.7 C493.210001,27.4199986 493.469998,27.28 493.749999,27.28 C494.230002,27.28 495.39999,27.8999938 497.259999,29.14 C499.120009,30.3800062 500.249997,31.1199988 500.649999,31.36 C501.050001,31.6000012 501.249999,31.8999982 501.249999,32.26 C501.249999,32.9400034 500.690005,33.4199986 499.569999,33.7 L499.569999,51.22 C499.569999,52.820008 499.49,54.019996 499.329999,54.82 C499.169999,55.620004 498.800002,56.2699975 498.219999,56.77 C497.639997,57.2700025 496.610007,57.7399978 495.129999,58.18 C493.649992,58.6200022 492.610002,58.84 492.009999,58.84 C491.089995,58.84 490.57,58.5000034 490.449999,57.82 C490.129998,56.1399916 489.570003,55.0100029 488.769999,54.43 C487.969995,53.8499971 486.670008,53.3800018 484.869999,53.02 C484.269996,52.8999994 483.969999,52.7700007 483.969999,52.63 C483.969999,52.4899993 484.309996,52.4000002 484.989999,52.36 C487.350011,52.2399994 489.009995,52.1100007 489.969999,51.97 C490.930004,51.8299993 491.549998,51.6100015 491.829999,51.31 C492.110001,51.0099985 492.249999,50.4800038 492.249999,49.72 L492.249999,45.16 L478.989999,45.16 L478.989999,56.44 C478.989999,56.8000018 478.870001,57.0999988 478.629999,57.34 C478.389998,57.5800012 477.630006,57.8599984 476.349999,58.18 C475.069993,58.5000016 473.850005,58.66 472.689999,58.66 C472.329998,58.66 472.149999,58.5000016 472.149999,58.18 L472.269999,55.36 C472.35,53.3999902 472.389999,51.620008 472.389999,50.02 L472.389999,32.98 C472.389999,30.97999 472.35,29.2000078 472.269999,27.64 C474.710012,28.240003 477.129987,29.039995 479.529999,30.04 L479.529999,30.04 Z M478.989999,36.4 L492.249999,36.4 L492.249999,32.02 L480.189999,32.02 C479.989998,32.620003 479.590002,33.019999 478.989999,33.22 L478.989999,36.4 Z M492.249999,38.38 L478.989999,38.38 L478.989999,43.18 L492.249999,43.18 L492.249999,38.38 Z M536.319999,11.56 C526.239949,11.8400014 520.410007,11.98 518.829999,11.98 C517.249991,11.98 516.459999,11.8300015 516.459999,11.53 C516.459999,11.2299985 516.999994,11.0400004 518.079999,10.96 C524.040029,10.4399974 531.419955,9.3900079 540.219999,7.81 C549.020043,6.2299921 554.979984,4.7800066 558.099999,3.46 C560.020009,4.9400074 561.639993,6.3299935 562.959999,7.63 C564.280006,8.9300065 565.049998,9.7199986 565.269999,10 C565.49,10.2800014 565.599999,10.5399988 565.599999,10.78 C565.599999,11.2200022 565.320002,11.44 564.759999,11.44 C564.479998,11.44 564.180001,11.3800006 563.859999,11.26 C562.699994,10.9399984 560.700014,10.78 557.859999,10.78 C555.019985,10.78 550.820027,10.9199986 545.259999,11.2 C547.30001,12.0400042 548.319999,12.6799978 548.319999,13.12 C548.319999,13.5600022 547.980003,13.7999998 547.299999,13.84 C544.779987,13.9200004 538.860046,16.1799778 529.539999,20.62 L544.179999,20.68 C548.020019,18.1599874 551.279986,15.800011 553.959999,13.6 C555.360006,14.5200046 556.769992,15.6199936 558.189999,16.9 C559.610006,18.1800064 560.459998,18.9899983 560.739999,19.33 C561.020001,19.6700017 561.159999,19.9799986 561.159999,20.26 C561.159999,20.7000022 560.820003,20.92 560.139999,20.92 C559.939998,20.92 559.710001,20.8900003 559.449999,20.83 C559.189998,20.7699997 558.880001,20.74 558.519999,20.74 C557.279993,20.74 555.520011,21.2499949 553.239999,22.27 C550.959988,23.2900051 549.220005,24.0399976 548.019999,24.52 C553.300026,25.7600062 557.289986,27.2999908 559.989999,29.14 C562.690013,30.9800092 564.039999,32.799991 564.039999,34.6 C564.039999,38.000017 562.480015,39.7 559.359999,39.7 C558.559995,39.7 557.850002,39.3500035 557.229999,38.65 C556.609996,37.9499965 556.299999,37.1800042 556.299999,36.34 C556.299999,35.4999958 556.22,34.8200026 556.059999,34.3 L547.419999,35.08 C547.46,35.2400008 547.479999,35.3799994 547.479999,35.5 C547.479999,35.900002 547.140003,36.2399986 546.459999,36.52 L546.459999,50.98 C546.459999,53.1400108 546.120003,54.6699955 545.439999,55.57 C544.759996,56.4700045 543.560008,57.1799974 541.839999,57.7 C540.119991,58.2200026 538.810004,58.48 537.909999,58.48 C537.009995,58.48 536.549999,57.9100057 536.529999,56.77 C536.509999,55.6299943 536.030004,54.6900037 535.089999,53.95 C534.149995,53.2099963 532.60001,52.6000024 530.439999,52.12 C529.759996,51.9599992 529.419999,51.780001 529.419999,51.58 C529.419999,51.4599994 529.499999,51.3700003 529.659999,51.31 C529.82,51.2499997 530.779991,51.22 532.539999,51.22 C534.300008,51.22 535.669994,51.1300009 536.649999,50.95 C537.630004,50.7699991 538.279998,50.4700021 538.599999,50.05 C538.920001,49.6299979 539.079999,49.0000042 539.079999,48.16 L539.079999,35.92 C528.959949,36.920005 523.340005,37.6799974 522.219999,38.2 C521.939998,38.3200006 521.69,38.38 521.469999,38.38 C521.249998,38.38 521.03,38.1500023 520.809999,37.69 C520.589998,37.2299977 520.200002,36.2200078 519.639999,34.66 C519.079997,33.0999922 518.799999,32.1700015 518.799999,31.87 C518.799999,31.5699985 519.099996,31.42 519.699999,31.42 C522.580014,31.3399996 525.249987,30.8500045 527.709999,29.95 C530.170012,29.0499955 534.239971,26.8600174 539.919999,23.38 C536.679983,23.9000026 533.690013,24.4999966 530.949999,25.18 C528.209986,25.8600034 526.570002,26.3199988 526.029999,26.56 C525.489997,26.8000012 525.12,26.92 524.919999,26.92 C524.719998,26.92 524.52,26.7400018 524.319999,26.38 C524.119998,26.0199982 523.760002,25.0000084 523.239999,23.32 C522.719997,21.6399916 522.459999,20.6500015 522.459999,20.35 C522.459999,20.0499985 522.659997,19.8600004 523.059999,19.78 C524.700008,19.4599984 526.179993,18.9800032 527.499999,18.34 C528.820006,17.6999968 530.359991,16.7100067 532.119999,15.37 C533.880008,14.0299933 535.279994,12.760006 536.319999,11.56 L536.319999,11.56 Z M546.759999,25.06 C540.079966,27.9000142 534.040026,30.31999 528.639999,32.32 L554.919999,31.78 C553.799994,29.8999906 551.080021,27.660013 546.759999,25.06 L546.759999,25.06 Z M526.839999,38.5 C528.840009,39.1400032 530.72999,39.8099965 532.509999,40.51 C534.290008,41.2100035 535.359998,41.6799988 535.719999,41.92 C536.080001,42.1600012 536.259999,42.4199986 536.259999,42.7 C536.259999,42.9800014 535.780004,43.1699995 534.819999,43.27 C533.859995,43.3700005 532.32001,44.2599916 530.199999,45.94 C526.879983,48.540013 523.460017,50.7899905 519.939999,52.69 C516.419982,54.5900095 514.360002,55.54 513.759999,55.54 C513.599999,55.54 513.519999,55.4600008 513.519999,55.3 C513.519999,55.1399992 513.799997,54.860002 514.359999,54.46 C517.480015,51.9799876 519.96999,49.5200122 521.829999,47.08 C523.690009,44.6399878 525.359992,41.7800164 526.839999,38.5 L526.839999,38.5 Z M548.679999,39.04 C549.440003,39.04 551.519982,39.5499949 554.919999,40.57 C558.320016,41.5900051 560.98999,42.8399926 562.929999,44.32 C564.870009,45.8000074 565.839999,47.4599908 565.839999,49.3 C565.839999,50.7400072 565.400004,51.9399952 564.519999,52.9 C563.639995,53.8600048 562.480007,54.34 561.039999,54.34 C560.159995,54.34 559.380003,54.040003 558.699999,53.44 C558.019996,52.839997 557.64,52.0600048 557.559999,51.1 C557.399999,48.9799894 556.490008,46.8500107 554.829999,44.71 C553.169991,42.5699893 551.200011,40.9400056 548.919999,39.82 C548.439997,39.5799988 548.199999,39.3900007 548.199999,39.25 C548.199999,39.1099993 548.359998,39.04 548.679999,39.04 L548.679999,39.04 Z M606.549999,2.86 C610.070017,2.86 612.529992,3.2699959 613.929999,4.09 C615.330006,4.9100041 616.029999,6.0799924 616.029999,7.6 C616.029999,9.1200076 615.480005,10.3099957 614.379999,11.17 C613.279994,12.0300043 612.210005,12.46 611.169999,12.46 C610.449996,12.46 609.800002,12.1500031 609.219999,11.53 C608.639996,10.9099969 608.26,9.9900061 608.079999,8.77 C607.899998,7.5499939 607.480003,6.5100043 606.819999,5.65 C606.159996,4.7899957 605.370004,4.1700019 604.449999,3.79 C603.529995,3.4099981 603.069999,3.1800004 603.069999,3.1 C603.069999,2.9399992 604.229988,2.86 606.549999,2.86 L606.549999,2.86 Z M587.049999,25.24 C583.569982,26.3200054 580.930008,27.3799948 579.129999,28.42 C578.889998,28.5800008 578.620001,28.66 578.319999,28.66 C578.019998,28.66 577.750001,28.560001 577.509999,28.36 C577.269998,28.159999 576.950001,27.1700089 576.549999,25.39 C576.149997,23.6099911 575.949999,22.6000012 575.949999,22.36 C575.949999,21.6399964 576.309996,21.180001 577.029999,20.98 C577.750003,20.779999 578.279998,20.5000018 578.619999,20.14 C578.960001,19.7799982 579.479996,18.8400076 580.179999,17.32 C580.880003,15.7999924 581.619995,13.7800126 582.399999,11.26 C583.180003,8.7399874 583.809997,6.1400134 584.289999,3.46 C586.010008,4.1000032 587.78999,4.8499957 589.629999,5.71 C591.470009,6.5700043 592.539998,7.1399986 592.839999,7.42 C593.140001,7.7000014 593.289999,8.0099983 593.289999,8.35 C593.289999,8.6900017 592.890003,8.959999 592.089999,9.16 C591.289995,9.360001 589.83001,10.9099855 587.709999,13.81 C585.589989,16.7100145 583.390011,19.4799868 581.109999,22.12 L588.909999,21.94 C590.110005,19.539988 591.169995,17.040013 592.089999,14.44 C594.010009,15.2800042 595.809991,16.1399956 597.489999,17.02 C599.170008,17.9000044 600.109998,18.4499989 600.309999,18.67 C600.51,18.8900011 600.609999,19.099999 600.609999,19.3 C600.609999,19.7800024 600.250003,20.0399998 599.529999,20.08 C599.049997,20.1200002 598.490003,20.3899975 597.849999,20.89 C597.209996,21.3900025 596.490003,22.0999954 595.689999,23.02 L591.249999,27.94 C589.049988,30.340012 586.590013,32.9599858 583.869999,35.8 C589.070025,35.5199986 593.56998,35.38 597.369999,35.38 C598.170003,35.38 598.569999,35.4399994 598.569999,35.56 C598.569999,35.6800006 598.190003,35.8599988 597.429999,36.1 C588.629955,38.7800134 582.970012,40.7799934 580.449999,42.1 C579.889997,42.3800014 579.400001,42.52 578.979999,42.52 C578.559997,42.52 578.28,42.4300009 578.139999,42.25 C577.999999,42.0699991 577.670002,40.9900099 577.149999,39.01 C576.629997,37.0299901 576.369999,35.8700017 576.369999,35.53 C576.369999,35.1899983 576.459998,34.9600006 576.639999,34.84 C576.82,34.7199994 577.229996,34.6400002 577.869999,34.6 C579.550008,34.4399992 580.919994,33.8100055 581.979999,32.71 C583.040005,31.6099945 584.729988,29.1200194 587.049999,25.24 L587.049999,25.24 Z M605.709999,14.74 L599.169999,14.74 C598.369995,14.74 597.650003,14.9599978 597.009999,15.4 L595.449999,12.58 C596.410004,12.7000006 597.409994,12.76 598.449999,12.76 L620.229999,12.76 C621.550006,10.4799886 622.429997,9.0600028 622.869999,8.5 C623.310002,7.9399972 623.669998,7.66 623.949999,7.66 C624.390002,7.66 625.689989,8.5799908 627.849999,10.42 C630.01001,12.2600092 631.089999,13.4399974 631.089999,13.96 C631.089999,14.4800026 630.690003,14.74 629.889999,14.74 L616.689999,14.74 C616.73,15.2600026 616.230005,15.6499987 615.189999,15.91 C614.149994,16.1700013 612.500011,17.3899891 610.239999,19.57 C607.979988,21.7500109 605.81001,23.6199922 603.729999,25.18 L620.349999,25 C618.989993,22.399987 617.330009,20.5200058 615.369999,19.36 C614.889997,19.0799986 614.649999,18.9000004 614.649999,18.82 C614.649999,18.7399996 614.749998,18.7 614.949999,18.7 C616.310006,18.7 618.079988,19.0199968 620.259999,19.66 C622.44001,20.3000032 624.139993,21.0099961 625.359999,21.79 C626.580005,22.5700039 627.469997,23.4099955 628.029999,24.31 C628.590002,25.2100045 628.869999,26.2699939 628.869999,27.49 C628.869999,28.7100061 628.490003,29.7599956 627.729999,30.64 C626.969996,31.5200044 625.970006,31.96 624.729999,31.96 C624.089996,31.96 623.590001,31.8300013 623.229999,31.57 C622.869998,31.3099987 622.530001,30.7300045 622.209999,29.83 C621.889998,28.9299955 621.550001,27.9400054 621.189999,26.86 L613.029999,28.42 C616.550017,29.020003 618.719995,29.4499987 619.539999,29.71 C620.360003,29.9700013 620.769999,30.299998 620.769999,30.7 C620.769999,31.100002 620.290004,31.5199978 619.329999,31.96 L619.329999,48.46 C619.329999,49.3000042 619.459998,49.8399988 619.719999,50.08 C619.980001,50.3200012 620.629994,50.44 621.669999,50.44 C622.710005,50.44 623.569996,50.2500019 624.249999,49.87 C624.930003,49.4899981 625.589996,48.6800062 626.229999,47.44 C626.870003,46.1999938 627.549996,44.3000128 628.269999,41.74 C628.47,41.0999968 628.609999,40.78 628.689999,40.78 C628.77,40.78 628.809999,40.8899989 628.809999,41.11 C628.809999,41.3300011 628.74,41.9299951 628.599999,42.91 C628.459999,43.8900049 628.389999,44.8899949 628.389999,45.91 C628.389999,46.9300051 628.529998,47.7699967 628.809999,48.43 C629.090001,49.0900033 629.689995,49.7599966 630.609999,50.44 C631.530004,51.1200034 631.989999,51.8999956 631.989999,52.78 C631.989999,53.8600054 631.170008,54.8599954 629.529999,55.78 C627.889991,56.7000046 625.430016,57.16 622.149999,57.16 C618.869983,57.16 616.700005,57.0300013 615.639999,56.77 C614.579994,56.5099987 613.800002,55.9400044 613.299999,55.06 C612.799997,54.1799956 612.549999,52.8000094 612.549999,50.92 L612.549999,35.02 C612.549999,32.4599872 612.49,30.3000088 612.369999,28.54 C608.849982,29.2200034 605.770013,29.8999966 603.129999,30.58 C606.570017,30.9000016 608.719995,31.1899987 609.579999,31.45 C610.440004,31.7100013 610.869999,31.9699987 610.869999,32.23 C610.869999,32.4900013 610.660001,32.7799984 610.239999,33.1 C609.819997,33.4200016 609.53,34.4599912 609.369999,36.22 C609.089998,39.4600162 608.520004,42.3099877 607.659999,44.77 C606.799995,47.2300123 605.30001,49.659988 603.159999,52.06 C601.019989,54.460012 597.92002,56.1099955 593.859999,57.01 C589.799979,57.9100045 587.430003,58.36 586.749999,58.36 C586.469998,58.36 586.329999,58.3100005 586.329999,58.21 C586.329999,58.1099995 586.529997,57.9800008 586.929999,57.82 C590.490017,56.419993 593.089991,55.1700055 594.729999,54.07 C596.370008,52.9699945 597.699994,51.4900093 598.719999,49.63 C599.740004,47.7699907 600.549996,45.2800156 601.149999,42.16 C601.750002,39.0399844 601.97,35.3000218 601.809999,30.94 C600.969995,31.1800012 600.380001,31.3699993 600.039999,31.51 C599.699998,31.6500007 599.390001,31.72 599.109999,31.72 C598.829998,31.72 598.58,31.5700015 598.359999,31.27 C598.139998,30.9699985 597.730002,29.9400088 597.129999,28.18 C596.529996,26.4199912 596.229999,25.4000014 596.229999,25.12 C596.229999,24.2799958 596.769994,23.8500001 597.849999,23.83 C598.930005,23.8099999 599.829996,23.5900021 600.549999,23.17 C601.270003,22.7499979 602.199994,21.5800096 603.339999,19.66 C604.480005,17.7399904 605.269997,16.1000068 605.709999,14.74 L605.709999,14.74 Z M576.069999,46.54 C582.11003,45.6199954 589.749953,43.7000146 598.989999,40.78 C599.11,40.7399998 599.289998,40.72 599.529999,40.72 C599.770001,40.72 599.889999,40.8699985 599.889999,41.17 C599.889999,41.4700015 599.670002,41.7399988 599.229999,41.98 C592.389965,45.9400198 586.150028,50.1399778 580.509999,54.58 C580.109997,54.9000016 579.8,55.06 579.579999,55.06 C579.359998,55.06 579.18,54.9200014 579.039999,54.64 C578.899999,54.3599986 578.550002,53.5100071 577.989999,52.09 C577.429997,50.6699929 576.790003,48.8200114 576.069999,46.54 L576.069999,46.54 Z" id="path-4"></path>
    </defs>
    <g id="Page-1" stroke="none" stroke-width="1" fill="none" fill-rule="evenodd" filter="url(#filter-3)">
        <g id="web-copy-12" transform="translate(-639.000000, -101.000000)">
            <g id="Group-16" transform="translate(639.000000, 101.000000)">
                <g id="最好用的在线行情系统">
                    <use fill="url(#linearGradient-1)" fill-rule="evenodd" xlink:href="#path-4"></use>
                    <use fill="url(#linearGradient-2)" fill-rule="evenodd" xlink:href="#path-4"></use>
                    <use fill="none" xlink:href="#path-4"></use>
                    <use fill="#FFFFFF" fill-rule="evenodd" xlink:href="#path-4"></use>
                </g>
            </g>
        </g>
    </g>
</svg>